<mxfile host="app.diagrams.net" agent="Mozilla/5.0 (Windows NT 10.0; Win64; x64) AppleWebKit/537.36 (KHTML, like Gecko) Chrome/132.0.0.0 Safari/537.36" version="26.0.10">
  <diagram name="Страница — 1" id="1GJVW98cwmnuVb-37Qie">
    <mxGraphModel dx="2976" dy="1105" grid="0" gridSize="10" guides="1" tooltips="1" connect="1" arrows="1" fold="1" page="0" pageScale="1" pageWidth="827" pageHeight="1169" math="0" shadow="0">
      <root>
        <mxCell id="0" />
        <mxCell id="1" parent="0" />
        <mxCell id="lcidTtguw5gk2LMlcL1f-12" value="" style="verticalLabelPosition=bottom;html=1;verticalAlign=top;align=center;shape=mxgraph.floorplan.wall;fillColor=strokeColor;rotation=90;" parent="1" vertex="1">
          <mxGeometry x="-1285.5" y="401" width="732" height="10" as="geometry" />
        </mxCell>
        <mxCell id="lcidTtguw5gk2LMlcL1f-13" value="" style="verticalLabelPosition=bottom;html=1;verticalAlign=top;align=center;shape=mxgraph.floorplan.wall;fillColor=strokeColor;rotation=90;direction=south;" parent="1" vertex="1">
          <mxGeometry x="-776.34" y="620.85" width="6.13" height="302.44" as="geometry" />
        </mxCell>
        <mxCell id="lcidTtguw5gk2LMlcL1f-14" value="" style="verticalLabelPosition=bottom;html=1;verticalAlign=top;align=center;shape=mxgraph.floorplan.wall;fillColor=strokeColor;rotation=90;direction=west;" parent="1" vertex="1">
          <mxGeometry x="-557" y="401" width="732" height="10" as="geometry" />
        </mxCell>
        <mxCell id="lcidTtguw5gk2LMlcL1f-15" value="" style="verticalLabelPosition=bottom;html=1;verticalAlign=top;align=center;shape=mxgraph.floorplan.wall;fillColor=strokeColor;rotation=90;direction=north;" parent="1" vertex="1">
          <mxGeometry x="-563.5" y="-321" width="10" height="732" as="geometry" />
        </mxCell>
        <mxCell id="lcidTtguw5gk2LMlcL1f-16" value="" style="verticalLabelPosition=bottom;html=1;verticalAlign=top;align=center;shape=mxgraph.floorplan.wall;fillColor=strokeColor;rotation=90;direction=south;" parent="1" vertex="1">
          <mxGeometry x="2146" y="1323" width="10" height="328.75" as="geometry" />
        </mxCell>
        <mxCell id="lcidTtguw5gk2LMlcL1f-17" value="" style="verticalLabelPosition=bottom;html=1;verticalAlign=top;align=center;shape=mxgraph.floorplan.wallU;fillColor=strokeColor;" parent="1" vertex="1">
          <mxGeometry x="-624" y="678.5" width="118" height="99.5" as="geometry" />
        </mxCell>
        <mxCell id="lcidTtguw5gk2LMlcL1f-18" value="&lt;b&gt;1&lt;/b&gt;" style="text;html=1;align=center;verticalAlign=middle;whiteSpace=wrap;rounded=0;fontSize=25;" parent="1" vertex="1">
          <mxGeometry x="-601" y="717" width="60" height="30" as="geometry" />
        </mxCell>
        <mxCell id="lcidTtguw5gk2LMlcL1f-19" value="" style="verticalLabelPosition=bottom;html=1;verticalAlign=top;align=center;shape=mxgraph.floorplan.wall;fillColor=strokeColor;direction=south;" parent="1" vertex="1">
          <mxGeometry x="-707" y="48" width="10" height="157" as="geometry" />
        </mxCell>
        <mxCell id="lcidTtguw5gk2LMlcL1f-26" value="" style="group" parent="1" vertex="1" connectable="0">
          <mxGeometry x="-923" y="205" width="142" height="44" as="geometry" />
        </mxCell>
        <mxCell id="lcidTtguw5gk2LMlcL1f-20" value="" style="verticalLabelPosition=bottom;html=1;verticalAlign=top;align=center;shape=mxgraph.floorplan.wall;fillColor=strokeColor;direction=west;" parent="lcidTtguw5gk2LMlcL1f-26" vertex="1">
          <mxGeometry width="53" height="10" as="geometry" />
        </mxCell>
        <mxCell id="lcidTtguw5gk2LMlcL1f-22" value="" style="verticalLabelPosition=bottom;html=1;verticalAlign=top;align=center;shape=mxgraph.floorplan.wall;fillColor=strokeColor;direction=west;" parent="lcidTtguw5gk2LMlcL1f-26" vertex="1">
          <mxGeometry x="94" width="48" height="10" as="geometry" />
        </mxCell>
        <mxCell id="lcidTtguw5gk2LMlcL1f-23" value="" style="verticalLabelPosition=bottom;html=1;verticalAlign=top;align=center;shape=mxgraph.floorplan.doorRight;aspect=fixed;" parent="lcidTtguw5gk2LMlcL1f-26" vertex="1">
          <mxGeometry x="53" width="41.41" height="44" as="geometry" />
        </mxCell>
        <mxCell id="lcidTtguw5gk2LMlcL1f-27" value="" style="group;direction=west;rotation=-180;" parent="1" vertex="1" connectable="0">
          <mxGeometry x="-923" y="634" width="142" height="64" as="geometry" />
        </mxCell>
        <mxCell id="lcidTtguw5gk2LMlcL1f-28" value="" style="verticalLabelPosition=bottom;html=1;verticalAlign=top;align=center;shape=mxgraph.floorplan.wall;fillColor=strokeColor;direction=west;rotation=-180;" parent="lcidTtguw5gk2LMlcL1f-27" vertex="1">
          <mxGeometry x="24" y="34" width="118" height="10" as="geometry" />
        </mxCell>
        <mxCell id="lcidTtguw5gk2LMlcL1f-29" value="" style="verticalLabelPosition=bottom;html=1;verticalAlign=top;align=center;shape=mxgraph.floorplan.wall;fillColor=strokeColor;direction=west;rotation=-180;" parent="lcidTtguw5gk2LMlcL1f-27" vertex="1">
          <mxGeometry y="34" width="48" height="10" as="geometry" />
        </mxCell>
        <mxCell id="dLeuSGhj31li3zQuD1Ko-10" value="" style="verticalLabelPosition=bottom;html=1;verticalAlign=top;align=center;shape=mxgraph.floorplan.wall;fillColor=strokeColor;direction=south;" parent="lcidTtguw5gk2LMlcL1f-27" vertex="1">
          <mxGeometry x="132" y="36" width="10" height="28" as="geometry" />
        </mxCell>
        <mxCell id="xKSjeW1G2-bWEXlzNs-_-23" value="" style="verticalLabelPosition=bottom;html=1;verticalAlign=top;align=center;shape=mxgraph.floorplan.doorRight;aspect=fixed;direction=south;" parent="lcidTtguw5gk2LMlcL1f-27" vertex="1">
          <mxGeometry x="81" y="-21" width="42.5" height="40" as="geometry" />
        </mxCell>
        <mxCell id="dLeuSGhj31li3zQuD1Ko-11" value="" style="verticalLabelPosition=bottom;html=1;verticalAlign=top;align=center;shape=mxgraph.floorplan.wall;fillColor=strokeColor;direction=south;" parent="lcidTtguw5gk2LMlcL1f-27" vertex="1">
          <mxGeometry x="113.5" y="19" width="10" height="23" as="geometry" />
        </mxCell>
        <mxCell id="lcidTtguw5gk2LMlcL1f-31" value="&lt;b&gt;1 - ВХОД&lt;br&gt;2 - техническая комната&amp;nbsp;&lt;br&gt;3 - архив&lt;/b&gt;&lt;div&gt;&lt;b&gt;4 - лестница на 2 этаж&lt;/b&gt;&lt;/div&gt;&lt;div&gt;&lt;b&gt;5 - санузлы&lt;/b&gt;&lt;/div&gt;&lt;div&gt;&lt;b&gt;6 -&amp;nbsp;&lt;/b&gt;&lt;span style=&quot;font-family: &amp;quot;Times New Roman&amp;quot;, serif; font-size: 14pt; background-color: transparent; color: light-dark(rgb(0, 0, 0), rgb(255, 255, 255));&quot;&gt;основной зал паспортного стола&lt;br&gt;7- зона ожидания&lt;/span&gt;&lt;/div&gt;" style="text;html=1;align=center;verticalAlign=middle;whiteSpace=wrap;rounded=0;fontSize=25;" parent="1" vertex="1">
          <mxGeometry x="22" y="126" width="620" height="336" as="geometry" />
        </mxCell>
        <mxCell id="lcidTtguw5gk2LMlcL1f-32" value="&lt;b&gt;2&lt;/b&gt;" style="text;html=1;align=center;verticalAlign=middle;whiteSpace=wrap;rounded=0;fontSize=25;" parent="1" vertex="1">
          <mxGeometry x="-882" y="708.5" width="60" height="30" as="geometry" />
        </mxCell>
        <mxCell id="lcidTtguw5gk2LMlcL1f-34" value="&lt;b&gt;3&lt;/b&gt;" style="text;html=1;align=center;verticalAlign=middle;whiteSpace=wrap;rounded=0;fontSize=25;" parent="1" vertex="1">
          <mxGeometry x="-830.75" y="111.5" width="60" height="30" as="geometry" />
        </mxCell>
        <mxCell id="lcidTtguw5gk2LMlcL1f-35" value="" style="verticalLabelPosition=bottom;html=1;verticalAlign=top;align=center;shape=mxgraph.floorplan.wallU;fillColor=strokeColor;rotation=90;" parent="1" vertex="1">
          <mxGeometry x="-346.5" y="1608" width="112" height="187" as="geometry" />
        </mxCell>
        <mxCell id="lcidTtguw5gk2LMlcL1f-36" value="&lt;b&gt;4&lt;/b&gt;" style="text;html=1;align=center;verticalAlign=middle;whiteSpace=wrap;rounded=0;fontSize=25;" parent="1" vertex="1">
          <mxGeometry x="-303" y="712" width="60" height="30" as="geometry" />
        </mxCell>
        <mxCell id="lcidTtguw5gk2LMlcL1f-44" value="" style="verticalLabelPosition=bottom;html=1;verticalAlign=top;align=center;shape=mxgraph.floorplan.wallU;fillColor=strokeColor;rotation=90;" parent="1" vertex="1">
          <mxGeometry x="-799.07" y="203" width="100.14" height="104.2" as="geometry" />
        </mxCell>
        <mxCell id="lcidTtguw5gk2LMlcL1f-46" value="" style="verticalLabelPosition=bottom;html=1;verticalAlign=top;align=center;shape=mxgraph.floorplan.wallU;fillColor=strokeColor;rotation=90;" parent="1" vertex="1">
          <mxGeometry x="-797" y="401" width="100" height="100" as="geometry" />
        </mxCell>
        <mxCell id="lcidTtguw5gk2LMlcL1f-47" value="" style="verticalLabelPosition=bottom;html=1;verticalAlign=top;align=center;shape=mxgraph.floorplan.wallU;fillColor=strokeColor;rotation=90;" parent="1" vertex="1">
          <mxGeometry x="-797" y="502" width="100" height="100" as="geometry" />
        </mxCell>
        <mxCell id="lcidTtguw5gk2LMlcL1f-49" value="" style="verticalLabelPosition=bottom;html=1;verticalAlign=top;align=center;shape=mxgraph.floorplan.wall;fillColor=strokeColor;direction=south;" parent="1" vertex="1">
          <mxGeometry x="-791" y="742" width="10" height="30" as="geometry" />
        </mxCell>
        <mxCell id="lcidTtguw5gk2LMlcL1f-55" value="" style="verticalLabelPosition=bottom;html=1;verticalAlign=top;align=center;shape=mxgraph.floorplan.doorRight;aspect=fixed;direction=south;" parent="1" vertex="1">
          <mxGeometry x="-838" y="535" width="42.5" height="40" as="geometry" />
        </mxCell>
        <mxCell id="lcidTtguw5gk2LMlcL1f-57" value="" style="verticalLabelPosition=bottom;html=1;verticalAlign=top;align=center;shape=mxgraph.floorplan.doorRight;aspect=fixed;direction=south;" parent="1" vertex="1">
          <mxGeometry x="-835.5" y="425" width="42.5" height="40" as="geometry" />
        </mxCell>
        <mxCell id="lcidTtguw5gk2LMlcL1f-59" value="" style="verticalLabelPosition=bottom;html=1;verticalAlign=top;align=center;shape=mxgraph.floorplan.doorRight;aspect=fixed;direction=south;" parent="1" vertex="1">
          <mxGeometry x="-835.5" y="232.2" width="42.5" height="40" as="geometry" />
        </mxCell>
        <mxCell id="lcidTtguw5gk2LMlcL1f-60" value="" style="verticalLabelPosition=bottom;html=1;verticalAlign=top;align=center;shape=mxgraph.floorplan.wall;fillColor=strokeColor;direction=south;" parent="1" vertex="1">
          <mxGeometry x="-803" y="272.2" width="10" height="62.8" as="geometry" />
        </mxCell>
        <mxCell id="lcidTtguw5gk2LMlcL1f-61" value="" style="verticalLabelPosition=bottom;html=1;verticalAlign=top;align=center;shape=mxgraph.floorplan.wall;fillColor=strokeColor;direction=south;" parent="1" vertex="1">
          <mxGeometry x="-803" y="375" width="10" height="50" as="geometry" />
        </mxCell>
        <mxCell id="lcidTtguw5gk2LMlcL1f-62" value="" style="verticalLabelPosition=bottom;html=1;verticalAlign=top;align=center;shape=mxgraph.floorplan.wall;fillColor=strokeColor;direction=south;" parent="1" vertex="1">
          <mxGeometry x="-805.5" y="466" width="10" height="69" as="geometry" />
        </mxCell>
        <mxCell id="lcidTtguw5gk2LMlcL1f-63" value="&lt;b&gt;6&lt;/b&gt;" style="text;html=1;align=center;verticalAlign=middle;whiteSpace=wrap;rounded=0;fontSize=25;direction=south;" parent="1" vertex="1">
          <mxGeometry x="-753.2" y="527.08" width="30" height="60" as="geometry" />
        </mxCell>
        <mxCell id="lcidTtguw5gk2LMlcL1f-64" value="&lt;b&gt;6&lt;/b&gt;" style="text;html=1;align=center;verticalAlign=middle;whiteSpace=wrap;rounded=0;fontSize=25;direction=south;" parent="1" vertex="1">
          <mxGeometry x="-766" y="421" width="30" height="60" as="geometry" />
        </mxCell>
        <mxCell id="lcidTtguw5gk2LMlcL1f-66" value="&lt;b&gt;6&lt;/b&gt;" style="text;html=1;align=center;verticalAlign=middle;whiteSpace=wrap;rounded=0;fontSize=25;direction=south;" parent="1" vertex="1">
          <mxGeometry x="-755.7" y="228" width="30" height="60" as="geometry" />
        </mxCell>
        <mxCell id="lcidTtguw5gk2LMlcL1f-112" value="" style="group" parent="1" vertex="1" connectable="0">
          <mxGeometry x="-326" y="12" width="138.5" height="200.38" as="geometry" />
        </mxCell>
        <mxCell id="lcidTtguw5gk2LMlcL1f-70" value="" style="verticalLabelPosition=bottom;html=1;verticalAlign=top;align=center;shape=mxgraph.floorplan.wall;fillColor=strokeColor;direction=south;" parent="lcidTtguw5gk2LMlcL1f-112" vertex="1">
          <mxGeometry x="34.5" y="118" width="10" height="27" as="geometry" />
        </mxCell>
        <mxCell id="lcidTtguw5gk2LMlcL1f-111" value="" style="group" parent="lcidTtguw5gk2LMlcL1f-112" vertex="1" connectable="0">
          <mxGeometry width="138.5" height="200.38" as="geometry" />
        </mxCell>
        <mxCell id="lcidTtguw5gk2LMlcL1f-41" value="" style="verticalLabelPosition=bottom;html=1;verticalAlign=top;align=center;shape=mxgraph.floorplan.wall;fillColor=strokeColor;direction=west;" parent="lcidTtguw5gk2LMlcL1f-111" vertex="1">
          <mxGeometry x="34.5" y="135" width="104" height="10" as="geometry" />
        </mxCell>
        <mxCell id="lcidTtguw5gk2LMlcL1f-42" value="" style="verticalLabelPosition=bottom;html=1;verticalAlign=top;align=center;shape=mxgraph.floorplan.wall;fillColor=strokeColor;direction=west;" parent="lcidTtguw5gk2LMlcL1f-111" vertex="1">
          <mxGeometry x="32.5" width="106" height="81" as="geometry" />
        </mxCell>
        <mxCell id="lcidTtguw5gk2LMlcL1f-43" value="&lt;b&gt;5&lt;/b&gt;" style="text;html=1;align=center;verticalAlign=middle;whiteSpace=wrap;rounded=0;fontSize=25;" parent="lcidTtguw5gk2LMlcL1f-111" vertex="1">
          <mxGeometry x="59.5" y="75.38" width="60" height="30" as="geometry" />
        </mxCell>
        <mxCell id="lcidTtguw5gk2LMlcL1f-68" value="" style="verticalLabelPosition=bottom;html=1;verticalAlign=top;align=center;shape=mxgraph.floorplan.doorRight;aspect=fixed;direction=south;" parent="lcidTtguw5gk2LMlcL1f-111" vertex="1">
          <mxGeometry y="77.38" width="42.5" height="40" as="geometry" />
        </mxCell>
        <mxCell id="lcidTtguw5gk2LMlcL1f-69" value="" style="verticalLabelPosition=bottom;html=1;verticalAlign=top;align=center;shape=mxgraph.floorplan.wall;fillColor=strokeColor;direction=south;" parent="lcidTtguw5gk2LMlcL1f-111" vertex="1">
          <mxGeometry x="32.5" y="45" width="10" height="32" as="geometry" />
        </mxCell>
        <mxCell id="H3-5eEjGRRQHUKkkhbYp-12" value="5" style="endArrow=classic;startArrow=classic;html=1;rounded=0;fontSize=12;startSize=8;endSize=8;curved=1;" parent="lcidTtguw5gk2LMlcL1f-111" edge="1">
          <mxGeometry x="-0.0385" width="50" height="50" relative="1" as="geometry">
            <mxPoint x="34.5" y="18" as="sourcePoint" />
            <mxPoint x="138.5" y="18" as="targetPoint" />
            <mxPoint as="offset" />
          </mxGeometry>
        </mxCell>
        <mxCell id="lcidTtguw5gk2LMlcL1f-143" value="" style="verticalLabelPosition=bottom;html=1;verticalAlign=top;align=center;shape=mxgraph.floorplan.wall;fillColor=strokeColor;direction=south;" parent="lcidTtguw5gk2LMlcL1f-111" vertex="1">
          <mxGeometry x="32.5" y="117.38" width="10" height="83" as="geometry" />
        </mxCell>
        <mxCell id="lcidTtguw5gk2LMlcL1f-114" value="" style="group;rotation=-180;" parent="1" vertex="1" connectable="0">
          <mxGeometry x="-380" y="310.83" width="132.67000000000002" height="100.17000000000002" as="geometry" />
        </mxCell>
        <mxCell id="lcidTtguw5gk2LMlcL1f-95" value="" style="verticalLabelPosition=bottom;html=1;verticalAlign=top;align=center;shape=mxgraph.floorplan.wallU;fillColor=strokeColor;rotation=-90;direction=east;" parent="lcidTtguw5gk2LMlcL1f-114" vertex="1">
          <mxGeometry width="100.14" height="100.2" as="geometry" />
        </mxCell>
        <mxCell id="lcidTtguw5gk2LMlcL1f-100" value="" style="verticalLabelPosition=bottom;html=1;verticalAlign=top;align=center;shape=mxgraph.floorplan.wall;fillColor=strokeColor;direction=south;rotation=-180;" parent="lcidTtguw5gk2LMlcL1f-114" vertex="1">
          <mxGeometry x="90" y="1" width="10" height="29" as="geometry" />
        </mxCell>
        <mxCell id="lcidTtguw5gk2LMlcL1f-103" value="" style="verticalLabelPosition=bottom;html=1;verticalAlign=top;align=center;shape=mxgraph.floorplan.doorRight;aspect=fixed;direction=south;rotation=-180;" parent="lcidTtguw5gk2LMlcL1f-114" vertex="1">
          <mxGeometry x="90" y="30" width="42.5" height="40" as="geometry" />
        </mxCell>
        <mxCell id="lcidTtguw5gk2LMlcL1f-113" value="" style="verticalLabelPosition=bottom;html=1;verticalAlign=top;align=center;shape=mxgraph.floorplan.wall;fillColor=strokeColor;direction=south;rotation=-180;" parent="lcidTtguw5gk2LMlcL1f-114" vertex="1">
          <mxGeometry x="90" y="71" width="10" height="29" as="geometry" />
        </mxCell>
        <mxCell id="lcidTtguw5gk2LMlcL1f-109" value="&lt;b&gt;6&lt;/b&gt;" style="text;html=1;align=center;verticalAlign=middle;whiteSpace=wrap;rounded=0;fontSize=25;direction=south;rotation=0;" parent="lcidTtguw5gk2LMlcL1f-114" vertex="1">
          <mxGeometry x="35.07" y="20.099999999999994" width="30" height="60" as="geometry" />
        </mxCell>
        <mxCell id="lcidTtguw5gk2LMlcL1f-123" value="" style="group;rotation=-180;" parent="1" vertex="1" connectable="0">
          <mxGeometry x="-379" y="212" width="132.67000000000002" height="100.17000000000002" as="geometry" />
        </mxCell>
        <mxCell id="lcidTtguw5gk2LMlcL1f-124" value="" style="verticalLabelPosition=bottom;html=1;verticalAlign=top;align=center;shape=mxgraph.floorplan.wallU;fillColor=strokeColor;rotation=-90;direction=east;" parent="lcidTtguw5gk2LMlcL1f-123" vertex="1">
          <mxGeometry width="100.14" height="100.2" as="geometry" />
        </mxCell>
        <mxCell id="lcidTtguw5gk2LMlcL1f-125" value="" style="verticalLabelPosition=bottom;html=1;verticalAlign=top;align=center;shape=mxgraph.floorplan.wall;fillColor=strokeColor;direction=south;rotation=-180;" parent="lcidTtguw5gk2LMlcL1f-123" vertex="1">
          <mxGeometry x="90" y="1" width="10" height="29" as="geometry" />
        </mxCell>
        <mxCell id="lcidTtguw5gk2LMlcL1f-126" value="" style="verticalLabelPosition=bottom;html=1;verticalAlign=top;align=center;shape=mxgraph.floorplan.doorRight;aspect=fixed;direction=south;rotation=-180;" parent="lcidTtguw5gk2LMlcL1f-123" vertex="1">
          <mxGeometry x="90" y="30" width="42.5" height="40" as="geometry" />
        </mxCell>
        <mxCell id="lcidTtguw5gk2LMlcL1f-127" value="" style="verticalLabelPosition=bottom;html=1;verticalAlign=top;align=center;shape=mxgraph.floorplan.wall;fillColor=strokeColor;direction=south;rotation=-180;" parent="lcidTtguw5gk2LMlcL1f-123" vertex="1">
          <mxGeometry x="90" y="71" width="10" height="29" as="geometry" />
        </mxCell>
        <mxCell id="lcidTtguw5gk2LMlcL1f-128" value="&lt;b&gt;6&lt;/b&gt;" style="text;html=1;align=center;verticalAlign=middle;whiteSpace=wrap;rounded=0;fontSize=25;direction=south;rotation=0;" parent="lcidTtguw5gk2LMlcL1f-123" vertex="1">
          <mxGeometry x="35.07" y="20.099999999999994" width="30" height="60" as="geometry" />
        </mxCell>
        <mxCell id="lcidTtguw5gk2LMlcL1f-129" value="" style="group;rotation=-180;" parent="1" vertex="1" connectable="0">
          <mxGeometry x="-380" y="409" width="132.67000000000002" height="100.17000000000002" as="geometry" />
        </mxCell>
        <mxCell id="lcidTtguw5gk2LMlcL1f-130" value="" style="verticalLabelPosition=bottom;html=1;verticalAlign=top;align=center;shape=mxgraph.floorplan.wallU;fillColor=strokeColor;rotation=-90;direction=east;" parent="lcidTtguw5gk2LMlcL1f-129" vertex="1">
          <mxGeometry width="100.14" height="100.2" as="geometry" />
        </mxCell>
        <mxCell id="lcidTtguw5gk2LMlcL1f-131" value="" style="verticalLabelPosition=bottom;html=1;verticalAlign=top;align=center;shape=mxgraph.floorplan.wall;fillColor=strokeColor;direction=south;rotation=-180;" parent="lcidTtguw5gk2LMlcL1f-129" vertex="1">
          <mxGeometry x="90" y="1" width="10" height="29" as="geometry" />
        </mxCell>
        <mxCell id="lcidTtguw5gk2LMlcL1f-132" value="" style="verticalLabelPosition=bottom;html=1;verticalAlign=top;align=center;shape=mxgraph.floorplan.doorRight;aspect=fixed;direction=south;rotation=-180;" parent="lcidTtguw5gk2LMlcL1f-129" vertex="1">
          <mxGeometry x="90" y="30" width="42.5" height="40" as="geometry" />
        </mxCell>
        <mxCell id="lcidTtguw5gk2LMlcL1f-133" value="" style="verticalLabelPosition=bottom;html=1;verticalAlign=top;align=center;shape=mxgraph.floorplan.wall;fillColor=strokeColor;direction=south;rotation=-180;" parent="lcidTtguw5gk2LMlcL1f-129" vertex="1">
          <mxGeometry x="90" y="71" width="10" height="29" as="geometry" />
        </mxCell>
        <mxCell id="lcidTtguw5gk2LMlcL1f-134" value="&lt;b&gt;6&lt;/b&gt;" style="text;html=1;align=center;verticalAlign=middle;whiteSpace=wrap;rounded=0;fontSize=25;direction=south;rotation=0;" parent="lcidTtguw5gk2LMlcL1f-129" vertex="1">
          <mxGeometry x="35.07" y="20.099999999999994" width="30" height="60" as="geometry" />
        </mxCell>
        <mxCell id="lcidTtguw5gk2LMlcL1f-135" value="" style="group;rotation=-180;" parent="1" vertex="1" connectable="0">
          <mxGeometry x="-380" y="507" width="132.67000000000002" height="100.17000000000002" as="geometry" />
        </mxCell>
        <mxCell id="lcidTtguw5gk2LMlcL1f-136" value="" style="verticalLabelPosition=bottom;html=1;verticalAlign=top;align=center;shape=mxgraph.floorplan.wallU;fillColor=strokeColor;rotation=-90;direction=east;" parent="lcidTtguw5gk2LMlcL1f-135" vertex="1">
          <mxGeometry width="100.14" height="100.2" as="geometry" />
        </mxCell>
        <mxCell id="lcidTtguw5gk2LMlcL1f-137" value="" style="verticalLabelPosition=bottom;html=1;verticalAlign=top;align=center;shape=mxgraph.floorplan.wall;fillColor=strokeColor;direction=south;rotation=-180;" parent="lcidTtguw5gk2LMlcL1f-135" vertex="1">
          <mxGeometry x="90" y="1" width="10" height="29" as="geometry" />
        </mxCell>
        <mxCell id="lcidTtguw5gk2LMlcL1f-138" value="" style="verticalLabelPosition=bottom;html=1;verticalAlign=top;align=center;shape=mxgraph.floorplan.doorRight;aspect=fixed;direction=south;rotation=-180;" parent="lcidTtguw5gk2LMlcL1f-135" vertex="1">
          <mxGeometry x="90" y="30" width="42.5" height="40" as="geometry" />
        </mxCell>
        <mxCell id="lcidTtguw5gk2LMlcL1f-139" value="" style="verticalLabelPosition=bottom;html=1;verticalAlign=top;align=center;shape=mxgraph.floorplan.wall;fillColor=strokeColor;direction=south;rotation=-180;" parent="lcidTtguw5gk2LMlcL1f-135" vertex="1">
          <mxGeometry x="90" y="71" width="10" height="29" as="geometry" />
        </mxCell>
        <mxCell id="lcidTtguw5gk2LMlcL1f-140" value="&lt;b&gt;6&lt;/b&gt;" style="text;html=1;align=center;verticalAlign=middle;whiteSpace=wrap;rounded=0;fontSize=25;direction=south;rotation=0;" parent="lcidTtguw5gk2LMlcL1f-135" vertex="1">
          <mxGeometry x="35.07" y="20.099999999999994" width="30" height="60" as="geometry" />
        </mxCell>
        <mxCell id="lcidTtguw5gk2LMlcL1f-144" value="" style="verticalLabelPosition=bottom;html=1;verticalAlign=top;align=center;shape=mxgraph.floorplan.wall;fillColor=strokeColor;direction=south;" parent="1" vertex="1">
          <mxGeometry x="-380" y="657" width="10" height="20" as="geometry" />
        </mxCell>
        <mxCell id="xKSjeW1G2-bWEXlzNs-_-1" value="" style="verticalLabelPosition=bottom;html=1;verticalAlign=top;align=center;shape=mxgraph.floorplan.wall;fillColor=strokeColor;rotation=90;" parent="1" vertex="1">
          <mxGeometry x="-688.12" y="374.12" width="280.75" height="10" as="geometry" />
        </mxCell>
        <mxCell id="xKSjeW1G2-bWEXlzNs-_-2" value="" style="verticalLabelPosition=bottom;html=1;verticalAlign=top;align=center;shape=mxgraph.floorplan.chair;rotation=90;" parent="1" vertex="1">
          <mxGeometry x="-602" y="236" width="41" height="52" as="geometry" />
        </mxCell>
        <mxCell id="xKSjeW1G2-bWEXlzNs-_-3" value="" style="verticalLabelPosition=bottom;html=1;verticalAlign=top;align=center;shape=mxgraph.floorplan.chair;rotation=90;" parent="1" vertex="1">
          <mxGeometry x="-602" y="292.3" width="41" height="52" as="geometry" />
        </mxCell>
        <mxCell id="xKSjeW1G2-bWEXlzNs-_-4" value="" style="verticalLabelPosition=bottom;html=1;verticalAlign=top;align=center;shape=mxgraph.floorplan.chair;rotation=90;" parent="1" vertex="1">
          <mxGeometry x="-604.5" y="344.3" width="41" height="52" as="geometry" />
        </mxCell>
        <mxCell id="xKSjeW1G2-bWEXlzNs-_-5" value="" style="verticalLabelPosition=bottom;html=1;verticalAlign=top;align=center;shape=mxgraph.floorplan.chair;rotation=90;" parent="1" vertex="1">
          <mxGeometry x="-602" y="401" width="41" height="52" as="geometry" />
        </mxCell>
        <mxCell id="xKSjeW1G2-bWEXlzNs-_-10" value="" style="group;rotation=-180;" parent="1" vertex="1" connectable="0">
          <mxGeometry x="-534" y="239" width="54.5" height="206" as="geometry" />
        </mxCell>
        <mxCell id="xKSjeW1G2-bWEXlzNs-_-6" value="" style="verticalLabelPosition=bottom;html=1;verticalAlign=top;align=center;shape=mxgraph.floorplan.chair;rotation=-90;" parent="xKSjeW1G2-bWEXlzNs-_-10" vertex="1">
          <mxGeometry x="5" y="160" width="41" height="52" as="geometry" />
        </mxCell>
        <mxCell id="xKSjeW1G2-bWEXlzNs-_-7" value="" style="verticalLabelPosition=bottom;html=1;verticalAlign=top;align=center;shape=mxgraph.floorplan.chair;rotation=-90;" parent="xKSjeW1G2-bWEXlzNs-_-10" vertex="1">
          <mxGeometry x="5" y="103" width="41" height="52" as="geometry" />
        </mxCell>
        <mxCell id="xKSjeW1G2-bWEXlzNs-_-8" value="" style="verticalLabelPosition=bottom;html=1;verticalAlign=top;align=center;shape=mxgraph.floorplan.chair;rotation=-90;" parent="xKSjeW1G2-bWEXlzNs-_-10" vertex="1">
          <mxGeometry x="8" y="51" width="41" height="52" as="geometry" />
        </mxCell>
        <mxCell id="xKSjeW1G2-bWEXlzNs-_-9" value="" style="verticalLabelPosition=bottom;html=1;verticalAlign=top;align=center;shape=mxgraph.floorplan.chair;rotation=-90;" parent="xKSjeW1G2-bWEXlzNs-_-10" vertex="1">
          <mxGeometry x="6" y="-5" width="41" height="52" as="geometry" />
        </mxCell>
        <mxCell id="xKSjeW1G2-bWEXlzNs-_-16" value="&lt;b&gt;7&lt;/b&gt;" style="text;html=1;align=center;verticalAlign=middle;whiteSpace=wrap;rounded=0;fontSize=25;" parent="1" vertex="1">
          <mxGeometry x="-573" y="529" width="60" height="30" as="geometry" />
        </mxCell>
        <mxCell id="xKSjeW1G2-bWEXlzNs-_-17" value="" style="verticalLabelPosition=bottom;html=1;verticalAlign=top;align=center;shape=mxgraph.floorplan.chair;rotation=90;" parent="1" vertex="1">
          <mxGeometry x="-602" y="451" width="41" height="52" as="geometry" />
        </mxCell>
        <mxCell id="xKSjeW1G2-bWEXlzNs-_-18" value="" style="verticalLabelPosition=bottom;html=1;verticalAlign=top;align=center;shape=mxgraph.floorplan.chair;rotation=-90;" parent="1" vertex="1">
          <mxGeometry x="-534" y="447" width="41" height="52" as="geometry" />
        </mxCell>
        <mxCell id="xKSjeW1G2-bWEXlzNs-_-21" value="" style="group" parent="1" vertex="1" connectable="0">
          <mxGeometry x="-827" y="305" width="148" height="100" as="geometry" />
        </mxCell>
        <mxCell id="lcidTtguw5gk2LMlcL1f-45" value="" style="verticalLabelPosition=bottom;html=1;verticalAlign=top;align=center;shape=mxgraph.floorplan.wallU;fillColor=strokeColor;rotation=90;" parent="xKSjeW1G2-bWEXlzNs-_-21" vertex="1">
          <mxGeometry x="27.679142877282025" width="104.32085712271798" height="100" as="geometry" />
        </mxCell>
        <mxCell id="lcidTtguw5gk2LMlcL1f-58" value="" style="verticalLabelPosition=bottom;html=1;verticalAlign=top;align=center;shape=mxgraph.floorplan.doorRight;aspect=fixed;direction=south;" parent="xKSjeW1G2-bWEXlzNs-_-21" vertex="1">
          <mxGeometry x="-16" y="30" width="42.5" height="40" as="geometry" />
        </mxCell>
        <mxCell id="lcidTtguw5gk2LMlcL1f-65" value="&lt;b&gt;6&lt;/b&gt;" style="text;html=1;align=center;verticalAlign=middle;whiteSpace=wrap;rounded=0;fontSize=25;direction=south;" parent="xKSjeW1G2-bWEXlzNs-_-21" vertex="1">
          <mxGeometry x="64.19144287023332" y="20" width="31.296257136815395" height="60" as="geometry" />
        </mxCell>
        <mxCell id="xKSjeW1G2-bWEXlzNs-_-24" value="" style="verticalLabelPosition=bottom;html=1;verticalAlign=top;align=center;shape=mxgraph.floorplan.wall;fillColor=strokeColor;direction=south;" parent="1" vertex="1">
          <mxGeometry x="-806" y="576" width="10" height="39" as="geometry" />
        </mxCell>
        <mxCell id="xKSjeW1G2-bWEXlzNs-_-30" value="" style="verticalLabelPosition=bottom;html=1;verticalAlign=top;align=center;shape=mxgraph.floorplan.doorRight;aspect=fixed;direction=south;" parent="1" vertex="1">
          <mxGeometry x="-412" y="616" width="42.5" height="40" as="geometry" />
        </mxCell>
        <mxCell id="xKSjeW1G2-bWEXlzNs-_-31" value="" style="verticalLabelPosition=bottom;html=1;verticalAlign=top;align=center;shape=mxgraph.floorplan.wall;fillColor=strokeColor;direction=south;" parent="1" vertex="1">
          <mxGeometry x="-380" y="603.63" width="10" height="11.37" as="geometry" />
        </mxCell>
        <mxCell id="xKSjeW1G2-bWEXlzNs-_-123" value="" style="verticalLabelPosition=bottom;html=1;verticalAlign=top;align=center;shape=mxgraph.floorplan.room;fillColor=strokeColor;" parent="1" vertex="1">
          <mxGeometry x="-923" y="1028" width="729" height="729" as="geometry" />
        </mxCell>
        <mxCell id="xKSjeW1G2-bWEXlzNs-_-125" value="&lt;b&gt;4&lt;/b&gt;" style="text;html=1;align=center;verticalAlign=middle;whiteSpace=wrap;rounded=0;fontSize=25;" parent="1" vertex="1">
          <mxGeometry x="-274" y="1683" width="60" height="30" as="geometry" />
        </mxCell>
        <mxCell id="xKSjeW1G2-bWEXlzNs-_-126" value="" style="verticalLabelPosition=bottom;html=1;verticalAlign=top;align=center;shape=mxgraph.floorplan.wallU;fillColor=strokeColor;rotation=90;" parent="1" vertex="1">
          <mxGeometry x="-335.5" y="627.5" width="105" height="194" as="geometry" />
        </mxCell>
        <mxCell id="xKSjeW1G2-bWEXlzNs-_-127" value="&lt;div&gt;&lt;b style=&quot;background-color: transparent; color: light-dark(rgb(0, 0, 0), rgb(255, 255, 255));&quot;&gt;1 - кабинет начальника паспортного стола&lt;/b&gt;&lt;/div&gt;&lt;div&gt;&lt;b style=&quot;background-color: transparent; color: light-dark(rgb(0, 0, 0), rgb(255, 255, 255));&quot;&gt;2- архив долгосрочного хранения&lt;/b&gt;&lt;/div&gt;&lt;b style=&quot;background-color: transparent; color: light-dark(rgb(0, 0, 0), rgb(255, 255, 255));&quot;&gt;3 -&amp;nbsp;&lt;/b&gt;&lt;b&gt;санузлы&lt;/b&gt;&lt;b style=&quot;background-color: transparent; color: light-dark(rgb(0, 0, 0), rgb(255, 255, 255));&quot;&gt;&lt;br&gt;4 - лестница на 1 этаж&lt;br&gt;5- it-отдел&lt;br&gt;6- серверная&lt;/b&gt;&lt;div&gt;&lt;b style=&quot;background-color: transparent; color: light-dark(rgb(0, 0, 0), rgb(255, 255, 255));&quot;&gt;7 - Офисное пространство&lt;br&gt;для сотрудников&lt;br&gt;8&amp;nbsp;&lt;/b&gt;&lt;span style=&quot;font-family: &amp;quot;Times New Roman&amp;quot;, serif; font-size: 14pt; background-color: transparent; color: light-dark(rgb(0, 0, 0), rgb(255, 255, 255));&quot;&gt;конференц-зал&lt;/span&gt;&lt;/div&gt;&lt;div&gt;&lt;span style=&quot;font-family: &amp;quot;Times New Roman&amp;quot;, serif; font-size: 14pt; background-color: transparent; color: light-dark(rgb(0, 0, 0), rgb(255, 255, 255));&quot;&gt;9-&amp;nbsp;&amp;nbsp;&lt;/span&gt;&lt;span style=&quot;font-family: &amp;quot;Times New Roman&amp;quot;, serif; font-size: 14pt; background-color: transparent; color: light-dark(rgb(0, 0, 0), rgb(255, 255, 255));&quot;&gt;комната отдыха для сотрудников&lt;/span&gt;&lt;/div&gt;" style="text;html=1;align=center;verticalAlign=middle;whiteSpace=wrap;rounded=0;fontSize=25;" parent="1" vertex="1">
          <mxGeometry x="-152" y="1106" width="620" height="336" as="geometry" />
        </mxCell>
        <mxCell id="xKSjeW1G2-bWEXlzNs-_-128" value="" style="group;direction=west;rotation=-90;" parent="1" vertex="1" connectable="0">
          <mxGeometry x="-796" y="1083" width="142" height="44" as="geometry" />
        </mxCell>
        <mxCell id="xKSjeW1G2-bWEXlzNs-_-129" value="" style="verticalLabelPosition=bottom;html=1;verticalAlign=top;align=center;shape=mxgraph.floorplan.wall;fillColor=strokeColor;direction=west;rotation=-90;" parent="xKSjeW1G2-bWEXlzNs-_-128" vertex="1">
          <mxGeometry x="28" y="62" width="53" height="10" as="geometry" />
        </mxCell>
        <mxCell id="xKSjeW1G2-bWEXlzNs-_-130" value="" style="verticalLabelPosition=bottom;html=1;verticalAlign=top;align=center;shape=mxgraph.floorplan.wall;fillColor=strokeColor;direction=west;rotation=-90;" parent="xKSjeW1G2-bWEXlzNs-_-128" vertex="1">
          <mxGeometry x="30" y="-30" width="48" height="10" as="geometry" />
        </mxCell>
        <mxCell id="xKSjeW1G2-bWEXlzNs-_-131" value="" style="verticalLabelPosition=bottom;html=1;verticalAlign=top;align=center;shape=mxgraph.floorplan.doorRight;aspect=fixed;rotation=-90;" parent="xKSjeW1G2-bWEXlzNs-_-128" vertex="1">
          <mxGeometry x="50" y="-2" width="41.41" height="44" as="geometry" />
        </mxCell>
        <mxCell id="xKSjeW1G2-bWEXlzNs-_-133" value="" style="verticalLabelPosition=bottom;html=1;verticalAlign=top;align=center;shape=mxgraph.floorplan.wall;fillColor=strokeColor;" parent="1" vertex="1">
          <mxGeometry x="-916" y="1168" width="179" height="10" as="geometry" />
        </mxCell>
        <mxCell id="xKSjeW1G2-bWEXlzNs-_-136" value="" style="verticalLabelPosition=bottom;html=1;verticalAlign=top;align=center;shape=mxgraph.floorplan.wall;fillColor=strokeColor;rotation=90;direction=south;" parent="1" vertex="1">
          <mxGeometry x="-368.36" y="627.64" width="10" height="289.48" as="geometry" />
        </mxCell>
        <mxCell id="xKSjeW1G2-bWEXlzNs-_-137" value="&lt;b&gt;1&lt;/b&gt;" style="text;html=1;align=center;verticalAlign=middle;whiteSpace=wrap;rounded=0;fontSize=25;" parent="1" vertex="1">
          <mxGeometry x="-860" y="1090" width="60" height="30" as="geometry" />
        </mxCell>
        <mxCell id="xKSjeW1G2-bWEXlzNs-_-142" value="" style="group" parent="1" vertex="1" connectable="0">
          <mxGeometry x="-747.005" y="1178" width="44" height="198.5" as="geometry" />
        </mxCell>
        <mxCell id="xKSjeW1G2-bWEXlzNs-_-139" value="" style="verticalLabelPosition=bottom;html=1;verticalAlign=top;align=center;shape=mxgraph.floorplan.wall;fillColor=strokeColor;direction=west;rotation=-90;" parent="xKSjeW1G2-bWEXlzNs-_-142" vertex="1">
          <mxGeometry x="-33.20500000000004" y="154.5" width="78" height="10" as="geometry" />
        </mxCell>
        <mxCell id="xKSjeW1G2-bWEXlzNs-_-140" value="" style="verticalLabelPosition=bottom;html=1;verticalAlign=top;align=center;shape=mxgraph.floorplan.wall;fillColor=strokeColor;direction=west;rotation=-90;" parent="xKSjeW1G2-bWEXlzNs-_-142" vertex="1">
          <mxGeometry x="-34.70500000000004" y="35" width="80" height="10" as="geometry" />
        </mxCell>
        <mxCell id="xKSjeW1G2-bWEXlzNs-_-141" value="" style="verticalLabelPosition=bottom;html=1;verticalAlign=top;align=center;shape=mxgraph.floorplan.doorRight;aspect=fixed;rotation=-90;" parent="xKSjeW1G2-bWEXlzNs-_-142" vertex="1">
          <mxGeometry x="1.294999999999959" y="78" width="41.41" height="44" as="geometry" />
        </mxCell>
        <mxCell id="xKSjeW1G2-bWEXlzNs-_-143" value="" style="verticalLabelPosition=bottom;html=1;verticalAlign=top;align=center;shape=mxgraph.floorplan.wall;fillColor=strokeColor;" parent="1" vertex="1">
          <mxGeometry x="-915" y="1372.5" width="179" height="10" as="geometry" />
        </mxCell>
        <mxCell id="xKSjeW1G2-bWEXlzNs-_-144" value="" style="group;direction=west;rotation=90;" parent="1" vertex="1" connectable="0">
          <mxGeometry x="-541" y="1563" width="142" height="73.5" as="geometry" />
        </mxCell>
        <mxCell id="xKSjeW1G2-bWEXlzNs-_-145" value="" style="verticalLabelPosition=bottom;html=1;verticalAlign=top;align=center;shape=mxgraph.floorplan.wall;fillColor=strokeColor;direction=west;rotation=90;" parent="xKSjeW1G2-bWEXlzNs-_-144" vertex="1">
          <mxGeometry x="61" y="-28" width="53" height="10" as="geometry" />
        </mxCell>
        <mxCell id="xKSjeW1G2-bWEXlzNs-_-146" value="" style="verticalLabelPosition=bottom;html=1;verticalAlign=top;align=center;shape=mxgraph.floorplan.wall;fillColor=strokeColor;direction=west;rotation=90;" parent="xKSjeW1G2-bWEXlzNs-_-144" vertex="1">
          <mxGeometry x="64.5" y="63.5" width="47" height="10" as="geometry" />
        </mxCell>
        <mxCell id="xKSjeW1G2-bWEXlzNs-_-147" value="" style="verticalLabelPosition=bottom;html=1;verticalAlign=top;align=center;shape=mxgraph.floorplan.doorRight;aspect=fixed;rotation=90;" parent="xKSjeW1G2-bWEXlzNs-_-144" vertex="1">
          <mxGeometry x="51" y="2" width="41.41" height="44" as="geometry" />
        </mxCell>
        <mxCell id="xKSjeW1G2-bWEXlzNs-_-148" value="" style="verticalLabelPosition=bottom;html=1;verticalAlign=top;align=center;shape=mxgraph.floorplan.wall;fillColor=strokeColor;direction=south;rotation=90;" parent="1" vertex="1">
          <mxGeometry x="-335.62" y="1390.38" width="10" height="255.25" as="geometry" />
        </mxCell>
        <mxCell id="xKSjeW1G2-bWEXlzNs-_-149" value="&lt;b&gt;2&lt;/b&gt;" style="text;html=1;align=center;verticalAlign=middle;whiteSpace=wrap;rounded=0;fontSize=25;" parent="1" vertex="1">
          <mxGeometry x="-313" y="1570" width="60" height="30" as="geometry" />
        </mxCell>
        <mxCell id="xKSjeW1G2-bWEXlzNs-_-151" value="&lt;b&gt;8&lt;/b&gt;" style="text;html=1;align=center;verticalAlign=middle;whiteSpace=wrap;rounded=0;fontSize=25;" parent="1" vertex="1">
          <mxGeometry x="-860" y="1259" width="60" height="30" as="geometry" />
        </mxCell>
        <mxCell id="xKSjeW1G2-bWEXlzNs-_-161" value="" style="verticalLabelPosition=bottom;html=1;verticalAlign=top;align=center;shape=mxgraph.floorplan.wall;fillColor=strokeColor;direction=west;rotation=-180;" parent="1" vertex="1">
          <mxGeometry x="-824" y="1579" width="90" height="10" as="geometry" />
        </mxCell>
        <mxCell id="xKSjeW1G2-bWEXlzNs-_-162" value="" style="verticalLabelPosition=bottom;html=1;verticalAlign=top;align=center;shape=mxgraph.floorplan.wall;fillColor=strokeColor;direction=west;rotation=-180;" parent="1" vertex="1">
          <mxGeometry x="-914" y="1579" width="48" height="10" as="geometry" />
        </mxCell>
        <mxCell id="xKSjeW1G2-bWEXlzNs-_-163" value="" style="verticalLabelPosition=bottom;html=1;verticalAlign=top;align=center;shape=mxgraph.floorplan.doorRight;aspect=fixed;rotation=-180;" parent="1" vertex="1">
          <mxGeometry x="-866" y="1545" width="41.41" height="44" as="geometry" />
        </mxCell>
        <mxCell id="xKSjeW1G2-bWEXlzNs-_-157" value="" style="verticalLabelPosition=bottom;html=1;verticalAlign=top;align=center;shape=mxgraph.floorplan.wall;fillColor=strokeColor;direction=west;rotation=-90;" parent="1" vertex="1">
          <mxGeometry x="-782.1" y="1540.4" width="87.79" height="10" as="geometry" />
        </mxCell>
        <mxCell id="xKSjeW1G2-bWEXlzNs-_-158" value="" style="verticalLabelPosition=bottom;html=1;verticalAlign=top;align=center;shape=mxgraph.floorplan.wall;fillColor=strokeColor;direction=west;rotation=-90;" parent="1" vertex="1">
          <mxGeometry x="-823.48" y="1373.22" width="165.56" height="10" as="geometry" />
        </mxCell>
        <mxCell id="xKSjeW1G2-bWEXlzNs-_-159" value="" style="verticalLabelPosition=bottom;html=1;verticalAlign=top;align=center;shape=mxgraph.floorplan.doorRight;aspect=fixed;rotation=-90;" parent="1" vertex="1">
          <mxGeometry x="-742.71" y="1459" width="41.41" height="44" as="geometry" />
        </mxCell>
        <mxCell id="xKSjeW1G2-bWEXlzNs-_-165" value="&lt;b&gt;5&lt;/b&gt;" style="text;html=1;align=center;verticalAlign=middle;whiteSpace=wrap;rounded=0;fontSize=25;" parent="1" vertex="1">
          <mxGeometry x="-860" y="1449" width="60" height="30" as="geometry" />
        </mxCell>
        <mxCell id="xKSjeW1G2-bWEXlzNs-_-170" value="" style="verticalLabelPosition=bottom;html=1;verticalAlign=top;align=center;shape=mxgraph.floorplan.wall;fillColor=strokeColor;rotation=90;" parent="1" vertex="1">
          <mxGeometry x="-821" y="1665" width="166" height="10" as="geometry" />
        </mxCell>
        <mxCell id="xKSjeW1G2-bWEXlzNs-_-171" value="&lt;b&gt;6&lt;/b&gt;" style="text;html=1;align=center;verticalAlign=middle;whiteSpace=wrap;rounded=0;fontSize=25;" parent="1" vertex="1">
          <mxGeometry x="-860" y="1655" width="60" height="30" as="geometry" />
        </mxCell>
        <mxCell id="xKSjeW1G2-bWEXlzNs-_-172" value="" style="verticalLabelPosition=bottom;html=1;verticalAlign=top;align=center;shape=mxgraph.floorplan.wall;fillColor=strokeColor;" parent="1" vertex="1">
          <mxGeometry x="-458" y="1645.63" width="100" height="10" as="geometry" />
        </mxCell>
        <mxCell id="xKSjeW1G2-bWEXlzNs-_-176" value="" style="group;rotation=-180;" parent="1" vertex="1" connectable="0">
          <mxGeometry x="-491.995" y="1244.5" width="288" height="207" as="geometry" />
        </mxCell>
        <mxCell id="xKSjeW1G2-bWEXlzNs-_-178" value="" style="verticalLabelPosition=bottom;html=1;verticalAlign=top;align=center;shape=mxgraph.floorplan.wall;fillColor=strokeColor;direction=west;rotation=-270;" parent="xKSjeW1G2-bWEXlzNs-_-176" vertex="1">
          <mxGeometry x="-44" y="197" width="166" height="10" as="geometry" />
        </mxCell>
        <mxCell id="xKSjeW1G2-bWEXlzNs-_-179" value="" style="verticalLabelPosition=bottom;html=1;verticalAlign=top;align=center;shape=mxgraph.floorplan.doorRight;aspect=fixed;rotation=-270;" parent="xKSjeW1G2-bWEXlzNs-_-176" vertex="1">
          <mxGeometry x="1" y="77" width="41.41" height="44" as="geometry" />
        </mxCell>
        <mxCell id="xKSjeW1G2-bWEXlzNs-_-181" value="" style="verticalLabelPosition=bottom;html=1;verticalAlign=top;align=center;shape=mxgraph.floorplan.wall;fillColor=strokeColor;direction=west;rotation=0;" parent="xKSjeW1G2-bWEXlzNs-_-176" vertex="1">
          <mxGeometry x="33" y="38.5" width="255" height="10" as="geometry" />
        </mxCell>
        <mxCell id="xKSjeW1G2-bWEXlzNs-_-182" value="&lt;b&gt;7&lt;/b&gt;" style="text;html=1;align=center;verticalAlign=middle;whiteSpace=wrap;rounded=0;fontSize=25;" parent="xKSjeW1G2-bWEXlzNs-_-176" vertex="1">
          <mxGeometry x="142.995" y="131.5" width="60" height="30" as="geometry" />
        </mxCell>
        <mxCell id="xKSjeW1G2-bWEXlzNs-_-180" value="" style="verticalLabelPosition=bottom;html=1;verticalAlign=top;align=center;shape=mxgraph.floorplan.wall;fillColor=strokeColor;direction=west;rotation=-90;" parent="1" vertex="1">
          <mxGeometry x="-472.73" y="1297.27" width="37.93" height="10.54" as="geometry" />
        </mxCell>
        <mxCell id="xKSjeW1G2-bWEXlzNs-_-183" value="" style="group;direction=west;rotation=90;" parent="1" vertex="1" connectable="0">
          <mxGeometry x="-543" y="1079" width="142.70000000000005" height="167" as="geometry" />
        </mxCell>
        <mxCell id="xKSjeW1G2-bWEXlzNs-_-184" value="" style="verticalLabelPosition=bottom;html=1;verticalAlign=top;align=center;shape=mxgraph.floorplan.wall;fillColor=strokeColor;direction=west;rotation=90;" parent="xKSjeW1G2-bWEXlzNs-_-183" vertex="1">
          <mxGeometry x="61" y="-28" width="53" height="10" as="geometry" />
        </mxCell>
        <mxCell id="xKSjeW1G2-bWEXlzNs-_-185" value="" style="verticalLabelPosition=bottom;html=1;verticalAlign=top;align=center;shape=mxgraph.floorplan.wall;fillColor=strokeColor;direction=west;rotation=90;" parent="xKSjeW1G2-bWEXlzNs-_-183" vertex="1">
          <mxGeometry x="64" y="64" width="48" height="10" as="geometry" />
        </mxCell>
        <mxCell id="xKSjeW1G2-bWEXlzNs-_-186" value="" style="verticalLabelPosition=bottom;html=1;verticalAlign=top;align=center;shape=mxgraph.floorplan.doorRight;aspect=fixed;rotation=90;" parent="xKSjeW1G2-bWEXlzNs-_-183" vertex="1">
          <mxGeometry x="51" y="2" width="41.41" height="44" as="geometry" />
        </mxCell>
        <mxCell id="xKSjeW1G2-bWEXlzNs-_-189" value="" style="group;direction=west;rotation=90;" parent="xKSjeW1G2-bWEXlzNs-_-183" vertex="1" connectable="0">
          <mxGeometry x="1.7000000000000455" y="123" width="142" height="44" as="geometry" />
        </mxCell>
        <mxCell id="xKSjeW1G2-bWEXlzNs-_-190" value="" style="verticalLabelPosition=bottom;html=1;verticalAlign=top;align=center;shape=mxgraph.floorplan.wall;fillColor=strokeColor;direction=west;rotation=90;" parent="xKSjeW1G2-bWEXlzNs-_-189" vertex="1">
          <mxGeometry x="60" y="-28" width="53" height="10" as="geometry" />
        </mxCell>
        <mxCell id="xKSjeW1G2-bWEXlzNs-_-191" value="" style="verticalLabelPosition=bottom;html=1;verticalAlign=top;align=center;shape=mxgraph.floorplan.wall;fillColor=strokeColor;direction=west;rotation=90;" parent="xKSjeW1G2-bWEXlzNs-_-189" vertex="1">
          <mxGeometry x="63" y="64" width="48" height="10" as="geometry" />
        </mxCell>
        <mxCell id="xKSjeW1G2-bWEXlzNs-_-192" value="" style="verticalLabelPosition=bottom;html=1;verticalAlign=top;align=center;shape=mxgraph.floorplan.doorRight;aspect=fixed;rotation=90;" parent="xKSjeW1G2-bWEXlzNs-_-189" vertex="1">
          <mxGeometry x="51" y="2" width="41.41" height="44" as="geometry" />
        </mxCell>
        <mxCell id="xKSjeW1G2-bWEXlzNs-_-187" value="" style="verticalLabelPosition=bottom;html=1;verticalAlign=top;align=center;shape=mxgraph.floorplan.wall;fillColor=strokeColor;" parent="1" vertex="1">
          <mxGeometry x="-453" y="1112" width="249" height="62" as="geometry" />
        </mxCell>
        <mxCell id="xKSjeW1G2-bWEXlzNs-_-188" value="&lt;b&gt;3&lt;/b&gt;" style="text;html=1;align=center;verticalAlign=middle;whiteSpace=wrap;rounded=0;fontSize=25;" parent="1" vertex="1">
          <mxGeometry x="-346" y="1087" width="60" height="30" as="geometry" />
        </mxCell>
        <mxCell id="xKSjeW1G2-bWEXlzNs-_-193" value="&lt;b&gt;9&lt;/b&gt;" style="text;html=1;align=center;verticalAlign=middle;whiteSpace=wrap;rounded=0;fontSize=25;" parent="1" vertex="1">
          <mxGeometry x="-346" y="1206" width="60" height="30" as="geometry" />
        </mxCell>
        <mxCell id="H3-5eEjGRRQHUKkkhbYp-6" value="" style="endArrow=classic;startArrow=classic;html=1;rounded=0;fontSize=12;startSize=8;endSize=8;curved=1;" parent="1" edge="1">
          <mxGeometry width="50" height="50" relative="1" as="geometry">
            <mxPoint x="-177" y="778" as="sourcePoint" />
            <mxPoint x="-177" y="675" as="targetPoint" />
          </mxGeometry>
        </mxCell>
        <mxCell id="H3-5eEjGRRQHUKkkhbYp-9" value="4" style="edgeLabel;html=1;align=center;verticalAlign=middle;resizable=0;points=[];fontSize=12;" parent="H3-5eEjGRRQHUKkkhbYp-6" vertex="1" connectable="0">
          <mxGeometry x="-0.121" y="1" relative="1" as="geometry">
            <mxPoint as="offset" />
          </mxGeometry>
        </mxCell>
        <mxCell id="H3-5eEjGRRQHUKkkhbYp-7" value="" style="endArrow=classic;startArrow=classic;html=1;rounded=0;fontSize=12;startSize=8;endSize=8;curved=1;" parent="1" edge="1">
          <mxGeometry width="50" height="50" relative="1" as="geometry">
            <mxPoint x="-392" y="787" as="sourcePoint" />
            <mxPoint x="-186.5" y="787" as="targetPoint" />
          </mxGeometry>
        </mxCell>
        <mxCell id="H3-5eEjGRRQHUKkkhbYp-8" value="5" style="edgeLabel;html=1;align=center;verticalAlign=middle;resizable=0;points=[];fontSize=12;" parent="H3-5eEjGRRQHUKkkhbYp-7" vertex="1" connectable="0">
          <mxGeometry x="0.2744" y="-2" relative="1" as="geometry">
            <mxPoint x="-24" y="-2" as="offset" />
          </mxGeometry>
        </mxCell>
        <mxCell id="H3-5eEjGRRQHUKkkhbYp-10" value="" style="endArrow=classic;startArrow=classic;html=1;rounded=0;fontSize=12;startSize=8;endSize=8;curved=1;" parent="1" edge="1">
          <mxGeometry width="50" height="50" relative="1" as="geometry">
            <mxPoint x="-176" y="149" as="sourcePoint" />
            <mxPoint x="-176" y="40" as="targetPoint" />
          </mxGeometry>
        </mxCell>
        <mxCell id="H3-5eEjGRRQHUKkkhbYp-11" value="6" style="edgeLabel;html=1;align=center;verticalAlign=middle;resizable=0;points=[];fontSize=12;" parent="H3-5eEjGRRQHUKkkhbYp-10" vertex="1" connectable="0">
          <mxGeometry x="-0.121" y="1" relative="1" as="geometry">
            <mxPoint as="offset" />
          </mxGeometry>
        </mxCell>
        <mxCell id="H3-5eEjGRRQHUKkkhbYp-14" value="17" style="endArrow=classic;startArrow=classic;html=1;rounded=0;fontSize=12;startSize=8;endSize=8;curved=1;" parent="1" edge="1">
          <mxGeometry x="0.0013" width="50" height="50" relative="1" as="geometry">
            <mxPoint x="-177" y="670" as="sourcePoint" />
            <mxPoint x="-177" y="154" as="targetPoint" />
            <mxPoint as="offset" />
          </mxGeometry>
        </mxCell>
        <mxCell id="H3-5eEjGRRQHUKkkhbYp-18" value="15" style="endArrow=classic;startArrow=classic;html=1;rounded=0;fontSize=12;startSize=8;endSize=8;curved=1;" parent="1" edge="1">
          <mxGeometry x="-0.0385" width="50" height="50" relative="1" as="geometry">
            <mxPoint x="-925.93" y="31" as="sourcePoint" />
            <mxPoint x="-682.93" y="31" as="targetPoint" />
            <mxPoint as="offset" />
          </mxGeometry>
        </mxCell>
        <mxCell id="H3-5eEjGRRQHUKkkhbYp-19" value="" style="endArrow=classic;startArrow=classic;html=1;rounded=0;fontSize=12;startSize=8;endSize=8;curved=1;" parent="1" edge="1">
          <mxGeometry width="50" height="50" relative="1" as="geometry">
            <mxPoint x="-934" y="203" as="sourcePoint" />
            <mxPoint x="-934" y="41" as="targetPoint" />
          </mxGeometry>
        </mxCell>
        <mxCell id="H3-5eEjGRRQHUKkkhbYp-20" value="6" style="edgeLabel;html=1;align=center;verticalAlign=middle;resizable=0;points=[];fontSize=12;" parent="H3-5eEjGRRQHUKkkhbYp-19" vertex="1" connectable="0">
          <mxGeometry x="-0.121" y="1" relative="1" as="geometry">
            <mxPoint as="offset" />
          </mxGeometry>
        </mxCell>
        <mxCell id="H3-5eEjGRRQHUKkkhbYp-23" value="7" style="endArrow=classic;startArrow=classic;html=1;rounded=0;fontSize=12;startSize=8;endSize=8;curved=1;" parent="1" edge="1">
          <mxGeometry x="-0.0385" width="50" height="50" relative="1" as="geometry">
            <mxPoint x="-679" y="30" as="sourcePoint" />
            <mxPoint x="-295" y="30" as="targetPoint" />
            <mxPoint as="offset" />
          </mxGeometry>
        </mxCell>
        <mxCell id="H3-5eEjGRRQHUKkkhbYp-24" value="" style="endArrow=classic;startArrow=classic;html=1;rounded=0;fontSize=12;startSize=8;endSize=8;curved=1;" parent="1" edge="1">
          <mxGeometry width="50" height="50" relative="1" as="geometry">
            <mxPoint x="-933" y="774" as="sourcePoint" />
            <mxPoint x="-933" y="680" as="targetPoint" />
          </mxGeometry>
        </mxCell>
        <mxCell id="H3-5eEjGRRQHUKkkhbYp-25" value="7" style="edgeLabel;html=1;align=center;verticalAlign=middle;resizable=0;points=[];fontSize=12;" parent="H3-5eEjGRRQHUKkkhbYp-24" vertex="1" connectable="0">
          <mxGeometry x="-0.121" y="1" relative="1" as="geometry">
            <mxPoint as="offset" />
          </mxGeometry>
        </mxCell>
        <mxCell id="H3-5eEjGRRQHUKkkhbYp-26" value="" style="endArrow=classic;startArrow=classic;html=1;rounded=0;fontSize=12;startSize=8;endSize=8;curved=1;" parent="1" edge="1">
          <mxGeometry width="50" height="50" relative="1" as="geometry">
            <mxPoint x="-934" y="676" as="sourcePoint" />
            <mxPoint x="-934" y="209.91" as="targetPoint" />
          </mxGeometry>
        </mxCell>
        <mxCell id="H3-5eEjGRRQHUKkkhbYp-27" value="14" style="edgeLabel;html=1;align=center;verticalAlign=middle;resizable=0;points=[];fontSize=12;" parent="H3-5eEjGRRQHUKkkhbYp-26" vertex="1" connectable="0">
          <mxGeometry x="-0.121" y="1" relative="1" as="geometry">
            <mxPoint as="offset" />
          </mxGeometry>
        </mxCell>
        <mxCell id="H3-5eEjGRRQHUKkkhbYp-28" value="" style="endArrow=classic;startArrow=classic;html=1;rounded=0;fontSize=12;startSize=8;endSize=8;curved=1;" parent="1" edge="1">
          <mxGeometry width="50" height="50" relative="1" as="geometry">
            <mxPoint x="-784" y="784" as="sourcePoint" />
            <mxPoint x="-925" y="784" as="targetPoint" />
          </mxGeometry>
        </mxCell>
        <mxCell id="H3-5eEjGRRQHUKkkhbYp-29" value="7" style="edgeLabel;html=1;align=center;verticalAlign=middle;resizable=0;points=[];fontSize=12;" parent="H3-5eEjGRRQHUKkkhbYp-28" vertex="1" connectable="0">
          <mxGeometry x="-0.121" y="1" relative="1" as="geometry">
            <mxPoint as="offset" />
          </mxGeometry>
        </mxCell>
        <mxCell id="H3-5eEjGRRQHUKkkhbYp-30" value="" style="endArrow=classic;startArrow=classic;html=1;rounded=0;fontSize=12;startSize=8;endSize=8;curved=1;" parent="1" edge="1">
          <mxGeometry width="50" height="50" relative="1" as="geometry">
            <mxPoint x="-632" y="682" as="sourcePoint" />
            <mxPoint x="-632" y="765" as="targetPoint" />
          </mxGeometry>
        </mxCell>
        <mxCell id="H3-5eEjGRRQHUKkkhbYp-31" value="5" style="edgeLabel;html=1;align=center;verticalAlign=middle;resizable=0;points=[];fontSize=12;" parent="H3-5eEjGRRQHUKkkhbYp-30" vertex="1" connectable="0">
          <mxGeometry x="-0.121" y="1" relative="1" as="geometry">
            <mxPoint as="offset" />
          </mxGeometry>
        </mxCell>
        <mxCell id="H3-5eEjGRRQHUKkkhbYp-32" value="" style="endArrow=classic;startArrow=classic;html=1;rounded=0;fontSize=12;startSize=8;endSize=8;curved=1;" parent="1" edge="1">
          <mxGeometry width="50" height="50" relative="1" as="geometry">
            <mxPoint x="-399" y="786" as="sourcePoint" />
            <mxPoint x="-511" y="786" as="targetPoint" />
          </mxGeometry>
        </mxCell>
        <mxCell id="H3-5eEjGRRQHUKkkhbYp-33" value="5" style="edgeLabel;html=1;align=center;verticalAlign=middle;resizable=0;points=[];fontSize=12;" parent="H3-5eEjGRRQHUKkkhbYp-32" vertex="1" connectable="0">
          <mxGeometry x="-0.121" y="1" relative="1" as="geometry">
            <mxPoint x="-5" as="offset" />
          </mxGeometry>
        </mxCell>
        <mxCell id="H3-5eEjGRRQHUKkkhbYp-34" value="" style="endArrow=classic;startArrow=classic;html=1;rounded=0;fontSize=12;startSize=8;endSize=8;curved=1;" parent="1" edge="1">
          <mxGeometry width="50" height="50" relative="1" as="geometry">
            <mxPoint x="-319" y="1032" as="sourcePoint" />
            <mxPoint x="-468" y="1032" as="targetPoint" />
          </mxGeometry>
        </mxCell>
        <mxCell id="lcidTtguw5gk2LMlcL1f-30" value="" style="verticalLabelPosition=bottom;html=1;verticalAlign=top;align=center;shape=mxgraph.floorplan.doorRight;aspect=fixed;rotation=-90;" parent="1" vertex="1">
          <mxGeometry x="-789.5" y="698" width="41.41" height="44" as="geometry" />
        </mxCell>
        <mxCell id="H3-5eEjGRRQHUKkkhbYp-17" value="" style="verticalLabelPosition=bottom;html=1;verticalAlign=top;align=center;shape=mxgraph.floorplan.wall;fillColor=strokeColor;direction=south;" parent="1" vertex="1">
          <mxGeometry x="-802" y="209.91" width="10" height="22.09" as="geometry" />
        </mxCell>
        <mxCell id="dLeuSGhj31li3zQuD1Ko-13" value="" style="endArrow=classic;startArrow=classic;html=1;rounded=0;fontSize=12;startSize=8;endSize=8;curved=1;" parent="1" edge="1">
          <mxGeometry width="50" height="50" relative="1" as="geometry">
            <mxPoint x="-776" y="785" as="sourcePoint" />
            <mxPoint x="-615" y="785" as="targetPoint" />
          </mxGeometry>
        </mxCell>
        <mxCell id="dLeuSGhj31li3zQuD1Ko-14" value="10" style="edgeLabel;html=1;align=center;verticalAlign=middle;resizable=0;points=[];fontSize=12;" parent="dLeuSGhj31li3zQuD1Ko-13" vertex="1" connectable="0">
          <mxGeometry x="0.2744" y="-2" relative="1" as="geometry">
            <mxPoint x="-24" y="-2" as="offset" />
          </mxGeometry>
        </mxCell>
        <mxCell id="hSZly8vs_Aa1FeptDqi2-2" value="" style="endArrow=classic;startArrow=classic;html=1;rounded=0;fontSize=12;startSize=8;endSize=8;curved=1;" edge="1" parent="1">
          <mxGeometry width="50" height="50" relative="1" as="geometry">
            <mxPoint x="-451" y="1765" as="sourcePoint" />
            <mxPoint x="-194.8" y="1765" as="targetPoint" />
          </mxGeometry>
        </mxCell>
        <mxCell id="hSZly8vs_Aa1FeptDqi2-3" value="12" style="edgeLabel;html=1;align=center;verticalAlign=middle;resizable=0;points=[];fontSize=12;" vertex="1" connectable="0" parent="hSZly8vs_Aa1FeptDqi2-2">
          <mxGeometry x="0.2744" y="-2" relative="1" as="geometry">
            <mxPoint x="-24" y="-2" as="offset" />
          </mxGeometry>
        </mxCell>
        <mxCell id="hSZly8vs_Aa1FeptDqi2-4" value="" style="endArrow=classic;startArrow=classic;html=1;rounded=0;fontSize=12;startSize=8;endSize=8;curved=1;" edge="1" parent="1">
          <mxGeometry width="50" height="50" relative="1" as="geometry">
            <mxPoint x="-923" y="1767" as="sourcePoint" />
            <mxPoint x="-731" y="1767" as="targetPoint" />
          </mxGeometry>
        </mxCell>
        <mxCell id="hSZly8vs_Aa1FeptDqi2-5" value="11" style="edgeLabel;html=1;align=center;verticalAlign=middle;resizable=0;points=[];fontSize=12;" vertex="1" connectable="0" parent="hSZly8vs_Aa1FeptDqi2-4">
          <mxGeometry x="0.2744" y="-2" relative="1" as="geometry">
            <mxPoint x="-24" y="-2" as="offset" />
          </mxGeometry>
        </mxCell>
        <mxCell id="hSZly8vs_Aa1FeptDqi2-6" value="4" style="endArrow=classic;startArrow=classic;html=1;rounded=0;fontSize=12;startSize=8;endSize=8;curved=1;" edge="1" parent="1">
          <mxGeometry x="-0.0011" width="50" height="50" relative="1" as="geometry">
            <mxPoint x="-723.2" y="1767" as="sourcePoint" />
            <mxPoint x="-460" y="1767" as="targetPoint" />
            <mxPoint as="offset" />
          </mxGeometry>
        </mxCell>
        <mxCell id="hSZly8vs_Aa1FeptDqi2-8" value="" style="endArrow=classic;startArrow=classic;html=1;rounded=0;fontSize=12;startSize=8;endSize=8;curved=1;" edge="1" parent="1">
          <mxGeometry width="50" height="50" relative="1" as="geometry">
            <mxPoint x="-185" y="1762" as="sourcePoint" />
            <mxPoint x="-185" y="1659" as="targetPoint" />
          </mxGeometry>
        </mxCell>
        <mxCell id="hSZly8vs_Aa1FeptDqi2-9" value="4" style="edgeLabel;html=1;align=center;verticalAlign=middle;resizable=0;points=[];fontSize=12;" vertex="1" connectable="0" parent="hSZly8vs_Aa1FeptDqi2-8">
          <mxGeometry x="-0.121" y="1" relative="1" as="geometry">
            <mxPoint as="offset" />
          </mxGeometry>
        </mxCell>
        <mxCell id="hSZly8vs_Aa1FeptDqi2-10" value="" style="shape=image;verticalLabelPosition=bottom;labelBackgroundColor=default;verticalAlign=top;aspect=fixed;imageAspect=0;image=data:image/png,iVBORw0KGgoAAAANSUhEUgAAAl4AAAGzCAIAAABxcY4QAAAgAElEQVR4AeydMY/1unW1GcQpAqQwexcG5B/gQoWLACnVphPSuI7+gmDApaHKpQXc0oXwVanUBbiJFcBlBNwmgCHYwAVSqcg/4AfPilf2u6mjozMz74zOOWuK91IURW4+JPciKerckPQnAiIgAiIgAiJgCAQTVlAEREAEREAERCBJGtUJREAEREAEROALApLGL3DoQgREQAREQAQkjeoDIiACIiACIvAFAUnjFzh0IQIiIAIiIAKSRvUBERABERABEfiCgKTxCxy6EAEREAEREAFJo/qACIiACIiACHxBQNL4BQ5diIAIiIAIiICkUX1ABERABERABL4gIGn8AocuREAEREAEREDSqD4gAiIgAiIgAl8QkDR+gUMXIiACIiACIiBpVB8QAREQAREQgS8IPJE0TtPU9333l7+2bb8goQsREAEReCYC67p2Xbcsy9VKL8vSdd26rldTPkyCp5DGeZ5jjMH8FUVxpEM8TDOrIiIgAm8kMAyDcSGhLEuXYd/3RVGEEKqqmufZ3T3b5bquTdPkajdNU1VVXdc5g9d1rev6/PVyZr/68vGlcVmWGGPTNH3fT3/5ezUvPSgCIvCcBMqyrMzfOI6WQ9M0McZpmlJKXdfFGM+sIuu6lmXpLMTSEKuIXBpTSlhj5GpqOTxM+PGlsWmaYRgepsFUEREQgY8nMAzDplrAkmmaQgjWzxRFkS8rP97sSyXWdd00zeZdLI4vVbbruqqqNh98sMgHl8Z1XZ+kIR+sX6o6InAqAvuvYKqqCiHY5VTXdSEEt7I8SY0g5G7JSNtw95I0LsviJgF88MECZ5dGu7kfwp+tXZYFHZHdblmWuq6RsiiKvu/ZSMMwjOM4zzMT1HWNTQ+kQVYsBZshvESJeZo8Brm5gvg602Zow5sTNwwqJpumKY9BcXy3EUKo63qzOLw2YG4hBFb/0uMpJQwP+xTDXdfldwk8fzZPvxmTUmIRIYQ8DaY40zQVRRFjZGWnaSrLEs+WZcnaWZMQdq1mi0MYydZ1bdsW20oxxrZtrctDBW13oovJM7Qxdorm+om1eV1XtMs0TeM45u+uLtWiKArHECW+wgb7iA1bO7uug21FURw5oLEsC7YcQ/jzWzoOXpu/DduhsYMrpXQJCAZvSmm/QfHCZX+Fh4VUURRN01gI7DAhhBij7XIYI6iFsxA5NE0TQsBhQJcghACqNkMbZno0ur01jiMwtm3LMWITgJiz1ibYl8aUklsQA2Bd1zaTBwifXRpTSnBDFLy6rtEzELOuK5pqffmDl2T3RVeOMSLxsixIwJGZUur7HtLC5oQU2cbO0+Qx8zwXRYGc0UGLoljXdZ7nsizhXpEzzJumyRbB0rGnj+FBpzzPs4uBAdjDwdCl88VaOYRAaHg8hMDRsvM4LMH0kFaBOWUA2EMIjGFKOCP4Td7N02/GQJB2nkJbs1zUCw4IL0JijIRmTUIYtbYzYjgC2xB1XfNFEfyXTT8MA18poXSr0+ir7H6cabEhUkroG65Doh3ty562bTGtQY9lvYqiAB/rwtCxUUc3XvIRtG/DJVBt25JD+fKHvgSk7OE5c76jQpXZ7piz8sFLQ2MHF8tqmoa23dqgSL8jFSmlpmnQn6E67vQKcuDog1WIpOKCErtZ3/dlWcYYbQxmhHb2z0qxpgwgw3xhitZ3xvApZI6DQjbShmH5TtFwBfQkcD77AG3+9xK+A2m0Ywanqixc15AYSGxXvDW332nA49PRcJXDR+g4bIwrZfMpd6yrbVuIE6b/sNnWJaVkDbOVwvTf9W/XodFB+RQcKC9dQXmG+48jHw5szs2Z/2bM/l1X4mYOrhYuzTiO9nUOhYdSBOa8tPYgfKQdLed1Xd1ljNF2jKqqqKO5PXnMuq7x5VAYbcs7JPTYLpuABeWyz7i6DMMAycyb3sUcscFljukODEBu9IxQDrp11ssGMAwZgxyGYbg6NI6YigHLRsktdy1oL2HSOI62OrTTBfCpA2ZvdmyiOjaG/oErV2cVFZFFuAS4dHkysd26sP0E7jGvoH0QHpK9yN5C2FmSJ0B97WxvmqYjAPOszhxzZ9LY971d8HFCykjXrpjrOV+JiRWdrHuEG7YcbOzoOzFYQHC5w8Wo69zoVc6ezf6R928X0zTNjnTlBd30OEyyxh8RNluRI+ldGu7RXcqnrmu3IsQajsMyr7XN6kg7Yr/IOg7LDVN1Fucyz4Uwj8EUm90VOUAL6WvyWsCd2eberAtyyx93MUdscIPC1tTtp3EhcmndgKHB4WazsmFnJG4dMRUoODZzy4uiuNSg1oCDYe48sUaw3A4Wts6mNM7zbO1Buc5stHiuoDQS71ng3zgocAjf9limZwDWEhfjGXCWMJ6Bqzkw5V0H7kka8cHNJdyY06GvsOGxAeKkCE3L2ZbtCsjExqC4qzEYw/ZlCcLuZQCKdvZs1ijv33kMbYPYcxzmHjlfNbJQ7OvCWkYiYEe7kzG3nnMPbt7dzwGLnp00fd/nDoXl2ldZO3ivtiMzTCkNw4DlGjnk5tn0m9hdi6OlnIVQXJbiHkEReQPldUHK/HEXc8SGS5lD52gqq4+1lKvXJXv4lA04I3HriKlXpZGl5A3KWzcFAIG6BcsdEwDkkCRPzLzz2RUTYLqP7VY71XYWQhrRcyjSsOGSo0AOsJYe0mVLUd9JsFnfPJ97j3m9NAJQLgaM2YF7EzVbEN9M2Bz4mr3rOkgUi4ZrcyMWvZBd2XZKHCiwMSgIMawaAywIRnL6Zs2zYSRz9tgEDLMIG6DNSIYzKVVVjePovDYKgnnrugLL8ceRv03v8qf40TyYQfuRnncZYALmAF+A4b1fCmczNhP4mqIohmF4lw1VrPjjy7anU4LcPGvJEWlEDq4DuA652UkA0BaX91LcxeMEzgALPWLDpcydqbRnM09rD0vnIy6wWevNbHMboBPIcNPyvu83G9TZcPzSbhHn9lBgOIKQBm1hd+BZok2AQz3cRWAaG0CVseGP7YR5njHeJY0W1KvDr5fGVxd564McM9h3Ym9DPvh2lZLpBgZmnW7/Cmm4BOEj/M0kxtDUqzGYvrmC+DgDrAtjLgXy/u1ioHZ2wsgpKsSGBweqqnLrEiyJ7CFs+CBnjEWdJ7Ax4zi6dYO9i2wvxeDsyX4atHL+QgtHbyiZV/FebUe8ObPOy2JHFXa8fG6Ai0EOzuvBqv1a4BCWbaC8LrjrSswF+4gNlzJHfL53ijzzxRBL5yTSVsGGc7M5edrHdXXViJOxXIHZBrUG3BS2n/fhbbHb7sbwZJuSJ+LtWQeUywTYoAYNl6e1kLMBeMV5npumAf/9CiLnneawltgSGb6aA1PedeCepBHv5K1D5xEA9nvXrpAEdlA0FZqWMoZH7G9DuEw4B7T9yaVxeyzsE5QuW/SOb+WDef+2MRiN3NKhE+HjeeAVj9uRCd9ns3UxbsC4u5sWIo2luvMUgNtDtngvaN00bNjB61otb1l4LuuLLTfk77oTFuUgkxvgYtAhbcPx2Be7insER2BCCK7cvC7vaMOlzFNK7hQxCi3L0r07YFdBVvldC5kK6truCK79Yzj7DUojbw3Udc32Silhd8puGmEDwzkZdHV08qutubnjRTspjTxWw05leyzTM4D0rnTezUeEvYUw+qdrvjzZvcfckzTybIudc6GfURrR8PS2UFObHmfZ7UDF0OUicrNz5J4ij8EqzR7szn9B4+qOH/tT3r9tDErnYODg5ON54BWPH1814rStXdXtiBxtQxrrUPafwh6Atcp9T3YVb95qLsYNe3dCFTMSOznDcparpVzVXAynd3yE3wYQCx6hV+US38mG6+rucZv4FTY4LMycGmZ9K7BYqbDpMYNx0p7/RtVm2x3BBZNYX2c56k4/7hoUdh48ocpK4XMsXuaTm/zjP2sVptH2C+NNn4OxwHrNL38slNJIvOC/WUE+xWmWHUT27qYlLgGGIV0uvsSlnS7x/V7egTSii7BzYzLFw4ro+vjWG7sc0IC+7+F9MG0syxKXeOvAduVQt30FeVrhyWO4RUnPzh8xjzFWVcWvLdk5uCvIuvCWC2Ag4bNI3MJw4id0dBk4slvXNYR5GIbNzDkaAWH/cXw52vc93R/TkxtjYB43VJGAd216WEiPzzQcVIyxT9k1Cj4uzgUYX6/iyC4+o+bcyIHN29HFgHyMER+KwAvgEpYjPb5bR8+0kuD6KtfKtlE2OyQhsEPy5wumacIvD7i6YCfN9lIkyG1ALezk76oNEKo8c/hWjEFUCic2N1PSYFDFnjA+d2HXQpqdobFjKkYcvhHkVOPWBmWL01oX4MoVReC9Pkc9E3PbFl9Q2D15tikpAa/9hR2YjX4LscG0DwVxTmarydzwk61ICVzWddBCBvDlLi9dgE2f1xEp8VUrn0Lv4qfGjL/3wNmlkYcIEMBbNEZioMIX4HN7uNeiKKyvGccRgxmf9tPz0nMhQ6gjcrNFHIlBP5jnGYnjyyEO27foHZiztdB2IzpfpMT0kE9xsonvFjAZx8FaqIItFNk6+1HuzuN8p4usnD3579TANv4qv6tpnj6PmV7+bB3zNGgd+CmugPEzC7ic5xlFV1VFD2LBOg6u9fmmFq6B3y/ClVtt468I8RceUIq1H9bmMUi50yHpRvmZ+eYPo9ic7VzBxr/aBpsJsViS9P5Qu0sTEfsIf7SIYHnXdRj2cCa4hIs/8sDZyabl+w2K+RZYsUQb4A9oYD5ke4JNhobDTM7+NFXezaZp4u8eoLKuZ0IU+e6Q0xGeqLDp8W4SUw03VC95GAC3bhAVudoQ/FCHwNldN3up43Nfl2eXxvuiKWtF4O0E4OAu+bW3568cRGDn58X34djzRzYlvg6wMfceljTeewvK/kcjIGl8tBY9X32wg50vHPctxWI335d6yP+Lg6RxvzPorgh8NAFsAGrV+NHcn6w86Nlxdbz0vzLG+YZcL+8dp6Tx3ltQ9j8UAb6F2nmn9VAVVmU+jwDO+2y+mHdGLcvS9/3j6Z+rpr2UNFoaCovAZxJw5yB2zoZ8ppUqWwSegICk8QkaWVUUAREQARG4hYCk8RZaSisCIiACIvAEBCSNT9DIqqIIiIAIiMAtBCSNt9BSWhEQAREQgScgIGl8gkZWFUVABERABG4hIGm8hZbSioAIiIAIPAEBSeMTNLKqKAIiIAIicAsBSeMttJRWBERABETgCQhIGp+gkVVFERABERCBWwhIGm+hpbQiIAIiIAJPQEDS+ASNrCqKgAiIgAjcQkDSeAstpRUBERABEXgCApLGJ2hkVVEEREAEROAWApLGW2gprQiIgAiIwBMQkDQ+QSOriiIgAiIgArcQkDTeQktpRUAEREAEnoCApPEJGllVFAEREAERuIWApPEWWkorAiIgAiLwBAQkjU/QyKqiCIiACIjALQQkjbfQUloREAERSGlZlrZtj5Do+36apiMpleZUBCSNp2oOGSMC90dgGIaiKC4JwDRNZVmGEIqiGMcxr96yLHVdhxBijF3X5QnOFjPPs9PFruuKokAV2rZd19XaPAyDS2/vKnxOApLGc7aLrBKBOyAwz3PTNOHlb1Mah2EIIfR9n1KapimEMAyDrdg8zzHGpmnWdV2WpSiKpmlsgrOF53kuy9KKHwhUVYUZQAjBJUgp1XV9F6p/NtqfaI+k8RPhq2gReAQC0IZcGtd1heyxkk3TxBiXZWFMVVVFUfASUrq5uGSaTwys61oUhVV3KCVrNE1TjJGzAZoKFDkiJlDgbAQkjWdrEdkjAndGoOu6EELu9xFvdQ4LR+4uuktUG6uucyLoui7GaG3r+96uIFNKUPeqqmyylFLTNHYS4O7q8mwE7kAa+SoCryuwOQOOeBmOzopeG0LA5gwSYKsH/6KzMgb7G1VVMSaEP9PAeGZkSsmlgRlXt0eQQ1EU1csfXkWEEOyYGccRmzCYXHPuCePzcq1VDLsAPdS6rpikw9fYqS7yX9eV70iKorA1Goahqqqu6+Z5hhmbL4ou2e8YwgPSTtcQZMIEjIGd8zzjXVQIoa5rVjClZB+xYZvG1dE5MhSBf20OzkjAWde173u8VxvHEW1aVdU8zzYfpEFudV2zWXMseQzycW3H6rgukXfOzRhXCk0lGVtxdoOyLN0Kjw+6APKnkbyLvu3gYPggTdu2+QILdSQ05paPTZja932MsSzLvO5Xh6ol40pc15UtiKph5VfXtTUpD6O358nyBXHbtjHGnFuep2I+nsDZpRE7GNi7X9cVgw2daZomDK0QQtu2TdNQHSk/cDHo4oCLHQ87k+37Hj6X9DFgbOdGGgzFZVkweulE+KANrOtqXzAgT6vrdmDAqhij8yOoFC13dlqrkKZtWxoJuV1f/rDlZd/iACanEdAeTOe7rgPnpmnKsuy6jspkh/G+/eM4wjFRipCJtQExlkkeg3yQZlkWGGZlfgdCSql8+YPXQ8r8PRBbbb+3LMvCDta2LaYOsCfGyGqiFFiYLyDmeXZY8hg0DdpxnmcIMDsG8s87535M3qUxdqqqAhyMEZbCaYeNISgXQOa2byCBHXd8BJHAhXHkHkSkHaF8NqXkcIFPURRczNn+cGSoIkP4EFsQ8sF0GfFozf1Rf+mVKuNt/0fL2v5vDVD4cwmcXRoxBWN3hKPkZUoJ3Yu+clkW7PXb8Qb/hS5Y1zUTA70rIqWUl+LS4JICfKkJx3Fkv3fuAzlYS3I3CktYWWcDBxsTpJSwEMT02e3eABSxwMvToSNzjlsYY1WEntRC27ffLf4cAS4CaFIek7+sWpYF5wCd5ZsQUKJdDWCKYBPnbbffW/JJBtIzT3h2Zou7vITkuJ6Tg7IJ0BupfEe6QZ4m79JumOQyNs+zbRpbBRfOW5ad00oLnkJByNmGmefVeafF1batbV+Wy+YACsuTBTFQVVWM0Y2Xuq5dU2IIXNJs5jYMg50qMR5NTwlPL1+AHCRsM1H4YwicXRpxgI3dMR/zrvumlNCD+T4DXTC+/DVNY+OB2OW5OdN0aZy3utRU08sf7jr3AQ9L/440bn2Ace4GOS9zL4BMUN98Fgy1o4eNL8cC+YgLuPpCdO18/4j91oXlsnckBjaz9WEkiuacIzeVdSmKAvtsjKGyMiYPYHYFPnlvce3IiRQLwlKb2eb902HJxTLGyNpxnUSNyet7NWazS0OzyTaXRlbhaiBnws5Js5mJlUMbZoKbpDHXPEfjyFCtqgqdijTmee66zrUdLq+K2earB9TuLZDJR4GPIXB2aSQF+2LMyoPrvhyTbsxge8RO2ZizHUsoxcYgmY3BmbR885MZMmC/9nXuA3N2pkQA24m2dtM08dLagPR5DOLtnhKL4MYRETFnpmFgM2frGo7Y7zTAETgijQDinBFqx/bdNJWKwmSsmlstMd4GdnpLXgvuPdocABn2O3lwWJw0QrzhQ92/WB7l9d2PudSloRkxRujBW7z2JhNY5epOVm9fNWL3m2JG+JbGwaGKt8U4poB8mqbhfII52/7PSBfo+55bL+6Wq3t+VzGnIvB6acR4cKPXXu543psQrOuK11pd12EZYXM+KI0pJfhEOx+HGXYsdV23rquNsWlYOzevv1Qdu9vj3MemJ0IaW7vXSWOeDyxkoXkFXRU2E1jXwKzsg65cvFSDQ+dxHqtzSE+qDDCNLZEFwTZq3qaplH8m4+ObefIuA5d6C2ymhUjvaEzThONX4zjm/ZPVtAHaierkHp+GIYF9FmHXbUIIiLnUpTF7wNqRubGUmwKbTKgELiuUhcjNttiMtJnQ2vwrSbY70xwZqoAPFNjIweaKa7urhqGTu62g3HLXeWwChc9D4PXS+DF1wJEEvvTK/aDrvhwbbu6G8ynYVr30cqLruiMTcxzHOHLEnP4uXyFh6LozDnAx9gXeW6SRe6dsKWgVEVnzmAaBnDOP/wHREfuxs41Cm6bJl4C5S3UxaFw3m4FtbN9NU1nHfJ8Aebo+4Kq/01uchXiQYHl2n42Y98/9VSMW9/lGLi3M67sTs9OlsUmOEcHTmCzlpsAmE54DsFKBNTHf6rltTBSK1wo7DQSAeNWSfzRiaRwcqhgImHb3fT+8/LHDEwWa8pKwYRVrK8sHGcCo4aUCZyZwdmnE4KGE2H4PrLnrwU4RfRPeBsGTovc7SUCeZVnulJKXiznmpXGCF35037k0Qiec04eWWKcwjiNXA7kNeQyYwL06VYD7o0kYpbaslBLt2cy5LEs6tYP2266fO9CrMdjYdBrv2nfTVJSLlR+bFZG2FtY8hsdx3Oktuc0WLFy/NTjvn/vSiO2Noiick2V/zut7KWa/S9P1I+e3eO2cCWDm51bQdhR+d8lX2nxxy0axAQJEueyTSJPTuDpU4RDQjmVZ8ti2aztUhw1hTTqii1hGu1FpM1H4VATOLo3onfRuGEtUCw5v60fwMR9j3C5H7tMxljhcueCwpeTjDYbtSGPXdXZbzLkPZOhGdf4rWV3XsYjchjyGfQvm2WGMaQG1EHMOLsex3KFwImfLBE6fTA7aT3vyycGRGJxQDSHQ7PzT6R0IYM5K8YCSxWItxB5jVVXsPHlvQZ62ZQEWzQRjrDTCL9tS6NkZ6WLYNKw1vuxE+ry+l2Js8+Vp3CvbXBrfeEKVx98sf4xN1gtf19hRAJgWLykxQFz4sotbx5f4uKG6LAvHFB7hXBnkabBru9z54PF1XfkNDI2c55kTTURiwmr7xjRN+S8GMAcFPpfA2aURnqgsS2wtopdXVdX3PQYYYvhhNQY8hxa+hKND53lC+5YCRXB40GXbTow0yAfffbtPCFwr9n3vZr4YddYSjkN+esi1AjaLkAn9CGywVmEaa2NoBnLgB8X4btKOVapOjBE/1mVlEp40xggVAcbNGmGKjVkz7acZNgCZod/htMZahTTWp8NXlmUJDvi+27q2HQj8EBZFoBabuGDn8d6CDolZVIyRBpNq3/fjONZ1zY+LYAPAWlBc4rOhaTY0AJ/ec3aYdwOKHBX9apdGoZxz8JKl8E2hjbGtyTCEwekT76L50Itgp5uXoKOiV6CX2h7CfBhwACFXdlv16lBliyBPvBgGOmSO3sXzUJZAjNH1HzQWf9kDv+8BTWVzoCCYStdE5i5D1lSBzyVwdmnkwMORaLge+zP/kEac08H7P3Y+Dm+OHHR9TJAxmPE4YqCONgbn61wMRBFn2DYbL0/PEjnhxYP8OZL4l19YRjyFjX7E5gCr8hhnjP0RmbIsLRaktD8zxE0k3AKouq4xyJ15LOiS/Uxgc6PB4MxLMslj8Dh/cwe/eGBdlX0kPwyJDTqsVPA60E5NnJFHegunTfjRr8088Vkbf5UJnhr/NwaEaTNme7xkL6XZuFXXNavsuhanF8zExWx2aY4C0HBWERF2ninYOS7SYOmbTcCfDeJ8wmXFI1pFUdh5kkuWFwdTMZ3KhzOsQte1tUB/AFJbdygiiBERMiETfA1sDcMAsQQQzgXP/VAcXdkmNFuEwp9C4OzSeBUKnMXVZB+ZAL/BT3fGonGUHGOPkecMwDXQI5zTyE+xCs7ULls/xQwV+ikE8p8XP2gGhHCz29j95IO5KdkHEJA0vj9k+7LK5Y5FsIs84aWk8VKjSBovkXmSeExw3Wbp1bp3L395MnciIU+gmM8icPfS6F6VfxZHW+7+Ymv/rs3nE8OXThx8okknKRqvNjen/yex8IHN+Pd/+s330x9TSv/xz7/9/gc//t3Pv/mY8J/+5icoC2zdyb6rwDf/V8b4sEQd6Sq9z0pw39LIV9n57uVnAX2McvH+Jn9f8hi1e3UteCRy/5XYq/PXg/sEvq1+9d3f/ewP//Ld//zVD//z199+2L/fffP7//rbn1p1hLDtW4u748vfkZRKcyoCdyyN9hX6pQNyp2J9L8a4MwX3YvbXttMdzbiLd8Zfm8nH5//t3//iv//6R//2j79OKf3u5998/4Mff0z4T//6h2//4ZcfX1+V+FkE7lgaPwuZyhUBERABEXhsApLGx25f1U4EREAEROBmApLGm5HpAREQAREQgccmIGl87PZV7URABERABG4mIGm8GZkeEAEREAEReGwCksbHbl/VTgREQARE4GYCksabkekBERABERCBxyYgaXzs9lXtREAEREAEbiYgabwZmR4QAREQARF4bAKSxsduX9VOBERABETgZgKSxpuR6QEREAEREIHHJiBpfOz2Ve1EQAREQARuJiBpvBmZHhABERABEXhsApLGx25f1U4EREAEROBmApLGm5HpAREQAREQgccmIGl87PZV7URABERABG4mIGm8GZkeEAEREAEReGwCksbHbl/VTgREQARE4GYCksabkekBERABERCBxyYgaXzs9lXtROCkBPq+n6bpqnHLsnRdt67r1ZRKIALvSEDS+I4wlZUIvD+BYRiKogghFEXRdd1mAX3fI01VVfM8b6Y5VWTbttbOdV3rug4vf3Vd21spJdx1kaeqjox5PAKSxsdrU9XocQj0fV+WZdd1TdPEGEMIuTriFlZgXdfFGE+uIk3T9H3PRlrXtSzLpmm6rivLMoQQY3TLxHme80jmoIAIvDsBSeO7I1WGIvA+BJZlaZqGeU3ThLUjY1JKiByGgZFFUZRlycuzBbDAtVa5FWRVVSEEWyMk7rquqir7oMIi8PUISBq/HlvlLAJvIuBWTimlsixjjDZTCIlN2XVdCGEcR5vsJOF1XWOMdsmI/VJr3jiOIQSXJqW0LMumZNpnFRaB9yJwH9I4TdOlVxHLsvBWURR2ROHVBf7FfNPFwIkwkocC4G6wedV1Hd7iYJ+naRrrhpiSmTCQUmIYAeaPmT7v7syFkX+MsXr5w3YTHkQP2DcAaWwVWGi+L8cutUM7pTTPM4HXdc1KpZQuGVMUBVxb27bw7Nj3CyGQp2NC89hGoMRkZVmCCbYZ0Vi8i2p2XXckxrVU/hSLLooixrgsC1mRLTYyFl8AACAASURBVF4Esm+4cmGPe4u2LEuM8aYVXozRriPXdUW3pD1cR9pk9i47AAJoFzTcOI5HzLa5WXR5iW3bwjzXmvv7vX3fhxAsZJboFsQAWNc1EyggAu9F4A6kcRiGGCNc8DzPGGwYOeu6YrSsL39QDuus4cStXroYjMMQghuuZVniqa7r6rpGcUjslAzvSNAe8Cx2rLribLPhVtu2NjIP232kPP+U0r4BcE9VVaEKcIiusrbQHdopJTujX5YFwLn3VRQFcoadcIhINk0TLAkhtG0Lm6Fq5DlNE2Jse6WU2ra1SJdlKYqCrQy3zhqhS9gGPRiDonfyQU+zOZcvf7ZvlGVJdWS5wDsMA7ouE4CSWwXatnBhbEXycaogASI9st1RXNcn67oGQ2C/arazKqWEDEMI1raUEpBSF1NKmGXmOTAGpbsOwLuwE8BTSkTKBAqIwHsROLs0YgfGjq6qqnjQwLpgOm6bGGsOutGUUh7jfCt2eOiw+r63Az4f2+M4skRnz2ZxbLncEt6yARzPQ0yeP2q9YwDcEwlwrWCLYHifNu7axQH2uHg+gjLv7ByGAZIDepRSzPpDCDQPTJxnLMuSigVT7dspNB+rwMXrrTGQ+UtPjeNIs5EGptJNY47ijsk423DJyqLtbA62dBvGBwz5diJs2JTGEC4Obdvx1nW1DYpCr5ptbUMnhzpaROM4Nk1jgWCNu6PZ4zhitmFHnC0r7x7TNB0BaDNRWASOELg4fo48/AFpdnZXsLkXY+RrFeeRN5XJ+gXYj6esg+j7nl7e1hHagO1Bxk/TtKNMeXF8cOcW0yCwkz+WDjsJ4PGJaF8a92ljks6sYBvcnxOzvCGQ2PlcrAixjkSCnPA8z7kzZX1fLYTOEu6Lwozc2rqunb92m3t8GcZJVW4b2sLJvC1xMwyYaDjLit37LdLY971r0FeY3XUd+oZtqaZpsMfAxkJFnLWsMloE1eT2A+8igCHDDN1dXYrAOxI4uzQ6F3ap5uu60rvZkZPLTx5DX8Dp5+bIxPyaC1Za8rWlcZ5n1mhTcvYNgHviBGJfGvdpY2VgFz0ppc1N5k07yZnoNrcE0UBcf7iD/njW7q/mNt8ag0XtzlP5VAkb+7mXd2t05rmuK0DZGZjlcDU8zzNmIfki25lBKb2UJ4fANE3uWTxyq9l4O4vugUGEs7WuG+Bys0SUu64rP+LcTAbLN29dqqziReB1BF4vjeimnMzmATr011mGpzhKL2WyrisOd3Dqasu9ZKTz75jzwm1N02QnvygXo9od8+Etluh8Aef1hFOWJZ0+PdSlqiHebuXl+V9dNWJtjfUKzbhU4j5t3HXoNv3dpp0HpRGbtFiaYxHplmt4ucUq5DYjhpVlgI9YS+Z5Rovs5+MkbbPWzJaInCV842stuSmMPkNjNs3YjLSl2EFhX44yza1mQxoxCcN2C37pxnWDq4bBADT65kkcWC5pZEsp8PUIvF4av55NNmeMUvoaewsvBe3LCTcUqUz28UuChNdgmO1SvWxxnPg7b7K/aLPFYW+Qb1/sLVuQC9v3ankFj0gjfA3eCEInXBG83KeNu5t7p3TWyGrTTioHi+Oq0T2O5dHw8udu8bdRmAms4uVmKZfS4B0enr2UBh+ks9WQGBW0e6c2E24/2DzxIu2Nn1XgdR0XzZhGuJmcnedZLAyz44FzrjS3mg1pxCkbMEGerhvgMi+OhjGAE1v5zjMs50yU6RUQgXcncHZpxGBw/hEbLzz4wCHkhuJN0kiHkh+0s9DzV2s3HcOx3oEeyuafh60rySt49RgOpQJ6vy+N+7SxJUi/DFOxVnCTiU07aYmt4+bj9PhlWeZvwiCZzMT6cUQej7FOducpVMetY9yJVhRdlqV9Fe3yRGVtg7IWxwPumz/sB9iFNXQl58Yi2PG4PnPNd6vZlEYU3b38cd5DyNB1y4cmuQC+7XGRHM5ucpYnU4wIvJ3A2aURXtKezcMsHhNzjGFKI1wPhyLH0pFVI8+aOxl2iCGNrgjmn0sC3RDysc7R3XIF4RLfPPBWnj/quGOAexe4L437tOlJuSrC7CR3dnlDoApoL+vH8SNnNgYp8eIqzxn6atM7P74pwJfSHM8H9lhVy6cRoGdlxpWL5rOZjONoYbKhLwXy30sDaltofj7I5WY7HroHzxgj5VWz3blQSiP7DyqVdwMIubMnv6zr2g4xJkArcLxjI4edn8kUEIG3Ezi7NFLeQgj4ytvKJAZ5WZbY1cSQrqqq73urnXaaidG1eQDVugySbdt2HEf4UHx4h4++4aTwE5f0bsjBrqtgEkYvN1Qxo786u5+mqSgKZs4PuXBa8ogBOC3C5Q4v6VxYTQZQhU3aNKAsS1jV9z0/OWUOXM1bDrgLGu470c31zeYkACehXNthJ5z+kfrNOvJDPRbENPtP2XUhvzOhy+ZGK3oXPt+0VWYpqDtbnzmgjvmuLEny5A5ooz/QZibD9GKe50snxZgSAbQCBwXkikdwr5qN/RU7a8GIY+bUfswjLRPUiE2DR2KMRVFA3VEF+4g1Hm9PGIOxbL805S0FROCNBO5AGnEMEh6wKAo6OLx2wjhHPEY1vwfn+YsQAoZrHmPxzfNsBzxu2bOvIQT+oAmUKcbICbvNHF+VuRiYgYUCfw6GTsFaYicEeSaIuWoAPC9fklHz8DgdtCt3hzZS8p2ZpWEzcQbbgtBYODYF9bWtaTPBIt5OC+wPr7giWCNW+XjM9PJnM8QayMag88Ctsy+h+0GW8v8thrMEudlDWPjYA79z5CrOS3RIPFsURdM0DghTsjtx2sFbLmDrhV7KCRPOvroEaCZ2cn4xxc0VpgclbnejrXkXZmCEUpURiTkiUlZVZcuyxueLcnTpnf8hiX1cYRG4icB9SONNVXp14r7vrR9/dT7v8iCcXa4cOCi080H3u5T+lTKBuzyS+TzPXHwwPX5YLpeHcRxjjOdpOxqsQE4g/3nxPM1mjP1ZKJsAR9NtjMIi8HYCksb/Y+h2L//vxmeEuq7LdZGGuEOJjD954Lg0Nk2Trx52am0PQ50cgszb/FZ1Hwt2xe27YaRf1zWfQu1npbsicISApPHPv+iP03TcIzoC7mun2V8D7d/92ra9Ov+rpzDQFniNl5eyX+v9u3luTxjz7//0m++nP6aU/uOff/v9D378u59/8zHhP/3NT1AWmW9OfXjXBS79r4yHYXC/4+ge1KUIvJrAs0sj3uTjzH2+U/dqrHowJ8B3Wu4UBlPiZV7x8rezYmZ6BW4l8G31q+/+7md/+Jfv/uevfvifv/72w/797pvf/9ff/tSp4zAM+ZGivEbLskj/ciyK+doEnl0a8Sa/qqpL/vprN8CT5H/kEBBeGbqTVk/C58Oq+e3f/+K///pH//aPv04p/e7n33z/gx9/TPhP//qHb//hlx9WTRUkAm8k8OzS+EZ8elwEREAERODxCEgaH69NVSMREAEREIE3EZA0vgmfHhYBERABEXg8ApLGx2tT1UgEREAEROBNBCSNb8Knh0VABERABB6PgKTx8dpUNRIBERABEXgTAUnjm/DpYREQAREQgccjIGl8vDZVjURABERABN5EQNL4Jnx6WAREQARE4PEISBofr01VIxEQAREQgTcRkDS+CZ8eFgEREAEReDwCksbHa1PVSAREQARE4E0EJI1vwqeHRUAEREAEHo+ApPHx2lQ1EgEREAEReBMBSeOb8OlhERABERCBxyMgaXy8NlWNREAEREAE3kRA0vgmfHpYBERABETg8QhIGh+vTVUjERABERCBNxGQNL4Jnx4WAREQARF4PAKSxsdrU9VIBERABETgTQQkjW/Cd0cPN00TzF/bttb4dV3bto0xhhCaplnX1d5VWAREQASeioCk8Smae1mWoigq87csC2u+rmv58rcsy7qudV2XZSl1JB8FREAEno2ApPEpWrxpmmmaLlW167oQAsVyWZYQgltWXnpW8SIgAiLweAQkjY/Xpr5GWDL62L9cr+saYyzL8i8Rf/5vVVUhBC0cLROFRUAEnofAfUjjNE11XeNNWV3X8zzbFhrHsSzLEEKMsW1bOvRlWfD+LKXUdV3+Is28evvfYFmW4zjazPFsURQhhKIo+r7n3WEYqqrqum6eZ2hJURR8fJomm3/XdXkMspqmCfaHEMqydMu7eZ5Zd5shnh3H8eoKD28Zy7Js25ZLQ9YCOdR1zRhUOYQwDIONRNjVoqqqlNI0TUVRxBiXZcEa1JoaY9x5f2kzzEsEmbIseQtt6ijldipGBERABF5N4A6kcRiGGCNc4TzPkEC6+GEYyrKEWLZtG0KAl5+mCZdQjqZpqI7w5kAG1UHm8O8hBOt2m6ap63p9+YP+QR27roPXbpqmLMuu6yhgfHxdV2gqtTyPQY2apkkpzfMcX/6sukPRIQxQHStjeYzrCuu6VlWFTCBXVt2pgl3X2QeR7aU91bwWRVGABmqKSoEzDviEECx2W1ZKiRm6xSvycS0CpK4WLkNdioAIiMBbCJxdGrHdZx03HD1cMO5SilJK1kGnlOBGueBYlgUiwUegAe6SxU3TFGOkUK3rCmEG8WEYsM5jAoix1QCoqW0hF+MMQA60p+97KypITPMgKuM40gBbkAsvy8JDqjYH2GNjqJe2Ii43W4txHEmYyazZKSWoMu/mgaqqMLfgpCel1LYtbCaQlNKyLPYyz0oxIiACIvBGAmeXRmiDdZe2wn3fxxhtDNwrHb314EgG7eF6aFOZuCKpX/5s/lZZsRPIsiBU0ABqVW6Ai8GamBV09mC3k2upXBqtbUfCEHt76Ab22FrcKo1YVbvSrTS6KYVLicuqqjDVYNOklOq6dkA2n1WkCIiACLwvgbNLoxMSV3kug+ybLXyZh5T549Azroes5x3HEQdSKGxYdLrM+RIul0YeYOGyJjcgj4GpWNVZ6UU8t235Gs/JmGNy9RKzDco/7HF5Agsp5XmyFn3fWzFjSkojV6v5ypKJwS2lFGMsigLxw8ufbSCbXmEREAER+HoEXi+N8Fm5bDDGedvX1YEuePPxqqq4orqUIIQv6rgpjbS5KAqqGrYBN/0+yjoujcyfAWvtsixVVRVFMQyD21BFMof67WBDCMwEmfPSlugirc1oF1QHL0rtXe6gsr72eJRLiUvIMKqPo0w4uSNp3MSlSBEQga9K4AvZ+KolvS5zuGArVzYfbJ9ykWdvIZwrK/SM3tx6Xp4FpRzmXzXYInakkRukuQEuBkdvNu1hWVQvBnjrdQEcrMWz+TZmSgnL8Z11HmqB3wqwQkt7uGpc1xWbxji/ygQuAGnEJ5V1XWOtya3dSx3AZaJLERABEXgXAmeXRogBlQN1hrdNKbm9QRKhT3c6lFLC2zsmsNJoXxYiK0gvz5ciksdANqWxLEtuCXJ/lYblMfjmgQmcPfguAt+NUCd2FnPMZz9gVQovAt3iG7u4R+YcgGBfXqJoSiMusRzcsZybtyga37qwypLG/QbVXREQgfclcHZpxDKCr/egXmVZYlnGu3xzhhUPPSkXN6TWNI09dJpLEfYAkR4rKn46gtKrqoJmQBW4xMThSbeEyrXZxdgjrziTab9V4FcNqBGstQKzruvBE6okkL8dhG5xpXvk13BsLTCBoLahICeNznJOL2gVHwdzTi/yHeZpmvq+35Ft5qmACIiACLyOwNmlkesGfCYBj8w1X0oJnhTrKnzXYZeYSI8NOq4y+VU+13AQHh4YoZvm1uJm6ZDGGCPsWZYFv0TKlsC3JSEErjspdbQBFuKH3PCJJD7EhP5BdVgjXN70XSMe6boOn2b2fc/crJ2wfF1X1mJHe1y9+EkMNRtkiBHnm6zku49qkKH9IAdZccOWUx9+6WghsCIKiIAIiMC7ELgDaYSkwZnan5th/cdx5F16Z9yF8PD/KeF+7IaHRBgoigIqwsyhzTg46h6HAODHuLH4s7/5grvM+dKv4czzDOOrqprnmaKCsznIFirFrBCAhdgfdrW2xjN//BgCJdmmwWoY7xfdLwq5ZNzgpTHQP+xsY6WIBSITIFDXNZfymHDEGKGFFhQq0jQNlrA2ExQEEQWx3DbFiIAIiMC7ELgPaXx1VSGNr358/0H49B1Z2n9cd99CgDuub8lEz4qACIjAJgFJ4yaWQ5GSxkOYvkKirusuLX+/QmnKUgRE4OkIPLg04rjjV2rVq5uZX6ncz8323//pN99Pf0wp/cc///b7H/z4dz//5mPCf/qbn/zu59/gdw/s3uzn0lDpIiACD0ngkaWRRzZ4CuZ9mzA/FPO++Z8zt2+rX333dz/7w7989z9/9cP//PW3H/bvd9/8/r/+9qdQ4nOSkVUiIAIPQ+BhpdEdBnn3N4L2hIj7wZ2H6RyXKvLt3//iv//6R//2j79OKf3u5998/4Mff0z4T//6h2//4ZeXrFK8CIiACLwXgYeVxvcCpHxEQAREQASejYCk8dlaXPUVAREQARG4QkDSeAWQbouACIiACDwbAUnjs7W46isCIiACInCFgKTxCiDdFgEREAEReDYCksZna3HVVwREQARE4AoBSeMVQLotAiIgAiLwbAQkjc/W4qqvCIiACIjAFQKSxiuAdFsEREAERODZCEgan63FVV8REAEREIErBCSNVwDptgiIgAiIwLMRkDQ+W4urviIgAiIgAlcISBqvANJtERABERCBZyMgaXy2Fld9RUAEREAErhCQNF4BpNsiIAIiIALPRkDS+GwtrvqKgAiIgAhcISBpvAJIt0VABERABJ6NgKTx2Vpc9RUBERABEbhCQNJ4BZBui4AIiIAIPBsBSeOztbjqKwIiIAIicIWApPEKIN0WAREQARF4NgJnl8aQ/U0vf1m0j6iq6knaclmWpmku1Xdd17ZtY4whhKZp1nXNsfR9XxRFCKGqqnme8wSKEQEREIGnInB2aUwpTdME3WvbFm0zTVOMcZomXsKt43Jd1x2peLDWtaqWV21d1/Llb1mWdV3rui7L0qlj0zSE2XVdjFHqmJNUjAiIwFMRuANpTClBGq0WDsPAdoJ2umVT0zRM8NiBZVnszMBWtuu6EMKyLIhESs4wOO2wMIuiKMvSZqKwCIiACDwbgXuVRrp7+ncnjX3fP09bbkrjuq4xRqdzVVWFELhwdJcpJajpOI7PQ081FQEREAFH4C6l0dVhc9Xo0mxedl2Hd2xFUXRdR8HgFq5/gRkCF1i4VRRF9fKHfJxEjeNYlmUIIcbYti3z5zo4z58CP45jCMGu8DargEhXLiKRQ13X9kEoH2qxritsswlQ90trbmdwSmlZFujrOI6b3Oq63tmhZYZ5iW3bwryu62DhsiwxRlcja7zCIiACIvAuBJ5XGvkSLqXU930Ige/h+r6np4bfB+u+7+mm8eqOl5Acu1QdhqEsS6gCvLz16XgLyC3i/HHE2Ed22ntTGpEDLcTjiITibk4pEOnWmrbouq5DCKxpXddAhJh1XTFLwCPDMEDe7LTA5pZSQoZ2LYsEODpk7WduLgddioAIiMD7EnhSaYRC2F3ZpmlCCHDEdgVppTGlZJdx4zhSIZAhpQ6bmbxMKWH5aNdPbdsygXs8pbSu6ziOO4pi+8GmNMJyKy3cL8XaFIVynYoMufKz+duwNRUnnuzdlJIjhkvW1CWGSVBHrshTSuM42hbhU9M02VZjvAIiIAIi8I4EnlQa88MmOKISY3RwnaO3d6eXP8RYwcAy1GUF72+Fqus6CoZ73JZyJPxZ0tj3ff5W0hHL5wSuRl3XYTlol6pN02BD2BJzD+pSBERABL4SgWeUxnmeN7UEO3iUKxB3jt42Q9/3TOy0DSsevkhjgPu0WC1detyWciS8WR1Y7qQFdr7LqnGaJrfidMTWdcVOta11Xh1METB1wIoQX2pi/erszx9XjAiIgAi8O4HXSyOcLJ1+HnhHp4bMKSSOwuY7M6Th9iDNm17+drTElbIjjW3bcnPPSWNVVXYN5AzG5ddeNcIk1wo2cpPbZqS137Y7387aBCBG4FVVkZJNxjA42GNHmHPAEmc/n1JABERABL4egddL49ezKc/51dI4zzNOkPLfeZ7hc92GJ1+SOT++I412zeSkEWug/TeFX1sasUtpX46mlLCcxVs97CE7CcdTO+s81hRZWQhoOEuMZ3TzfVe2MjkURYFGQZ6SRiJSQARE4IMJPLg0XqKJvVN7KAYnZYqicI9YR29vYdOPMRQMxGAjkYd0mMyeNNk/hsNHjgQ2F8H4NsMpH978UbPdJc4ZhRD2lSyEME0TjhoF80ELTHXEsBzMFZT1ojTiHG/38sfPVbVqJCgFREAEPozAk0ojlMyujbCEstKFNoB45O3RdZ3VDyeNyM1+5IAVm92ttWrhHn+XE6rUOa6DYZVdR0K3bK3zA0qu7tZUzABijNRaLr75VL5D606ZUhoJDQbnx3Dw8tIyZCkKiIAIiMA7ErgDaYRv5ZcVeeWxe3nTj3/is0JK17IsZVnmHxHSWbv1Zd/3bjWWf2mAnckQAn4WIMYIJcavnuKrR9YFKy27yoQC5SbxEQYgIUVRUAJ5i7+huq4r6pi/HcRvqM7zjC8xrmJ0pmLqUNc11JFLSdgwzzMScPEHLHZ1XlUVK459bzwLpJYAGjqE4JqD9VVABERABN6FwNmlkac5GLCLBqom79ql2D4gKgHUi76bT0GcmHMI/8sK2mDjbdgaMI6j/bUd5ExtgH93VeDj+ZqJhtmALXpz9oBqbv4iD/PBr4qHEOq6zvWVyfIf8Ukp4bgvzHB1QWRZlnZVOs8zZwk2Q1R8ePnj0pO1gw1oEfx0kbVKYREQARF4XwJnl8b3re275IbTp/nCBSskatu7lKVMcgL4DjKPV4wIiIAIvBcBSePNJKuqsq/W7PPrukoaLZB3D4vwuyNVhiIgAjkBSWPO5EpMvvVqH9i/a1PeX/g3v0l//OOfzf7tb9OPf5y++eaDwj/5CcoahqHv+0vzkvvjKYtFQATOSkDSeNaWOaFdv/pV+tnP0nffpR/+MH377cf9+/vfp5/+9H+V+IRYZJIIiMDDEZA0PlyTftUK/eIX6Uc/Sr/+9Z8L+eabP68dPyb8hz+kX/7yq9ZMmYuACIgACUgaiUIBERABERABEfgzAUmj+oEIiIAIiIAIfEFA0vgFDl2IgAiIgAiIgKRRfUAEREAEREAEviAgafwChy5EQAREQAREQNKoPiACIiACIiACXxCQNH6BQxciIAIiIAIiIGlUHxABERABERCBLwhIGr/AoQsREAEREAERkDSqD4iACIiACIjAFwQkjV/g0IUIiIAIiIAISBrVB0RABERABETgCwKSxi9w6EIEREAEREAEJI3qAyIgAiIgAiLwBQFJ4xc4dCECIiACIiACkkb1AREQAREQARH4goCk8QscuhABERABERABSaP6gAiIgAiIgAh8QUDS+AUOXYiACIiACIjAo0njOI51XVdVpaYVAREQAREQgdcReChpnKap7/sQgqTxdb1BT4mACBwksK5r0zQxxhBCURR93+cPruvati3SNE2zrmuepu/7oijgteZ5zhMo5lMIPJQ0gqCk8VN6kgoVgechsK5rWZYxxqqqIGwhhKZpLAGkKctyWZZ1Xeu6LsvSqSPEdZqmlFLXdTFGqaNl+IlhSeMnwlfRIiACd0mg73u7CsRmVQjBClvXdSGEZVlQw2VZQght27LC0zSFEIZhYExRFGVZ8lKBTyQgafxE+CpaBETgLgl0XefsbpomhMD4dV1jjE7nqqoKIXDh6C6xcAwhjOPoMtflxxO4D2mc57mu6/DyV9c19h8srGEY4ssfZmplWaKnFkXBeRzmaMiEnZiXjEG2wzCUZRlCiDFyeojM+cg0TXkMreq6DjstRVF0XcfxsJlg80UFUmL8sNA8kFJa1xVvLKZpGsdx59XFvlXruroEsMFV09qAzaIjpfOdSgihrmvOpl3mO1QvmXcJUVEUKSVrLcJlWebeZxxH2+I0j+3lAsiqKIrq5Y+7anzPnZeLGCawL6ts4rx7s+jNbsm7O1Ww+dsw9gCnaWqapqoqmIRuTy+fNxBKJHakZDIA4d0QwmabMj3s2Uzjxuw0TTZb5JxSwmC3CzLLtixLuzJz5boxjqqN4+hWeIR8KYBsOZCRQ13XNj3SwJh1XVG0TYD6olGu1tQlwCtPtprNFmGmx7iwCWAtqsyeX5ZlURS547IPPnD4DqQRzYY+tywL/Jft6+hPGBjofDHGaZqwvx9jZOuu6woXRr3E5M7thDRNgzcEKSVslXD2N88zuiDzzGNSSuXLHzoZc+AjGMx1Xa8vf+iyHFR5b0MOttOjyhh4y7LgLQV6dlVVXdfRy9tC963CqxHOAzAXAdW6rgmcr3Lhff7f//t/R0pHFZDJMAzMBJXNGeYxO+ZxAgQsAIWugvxRF0jONE3oA1aBcFaCCTDNYifJWwTTkbqu2SjOMyJBWZYsJU+ANmrbdl1XWL7viXa6ZUpppwrzPPMtF8xgTdGy4ANJa1/+IFesHZrPDRP0c9tvUQviujpS8lbOY3IyMIaq0/c9XvsxZlmW+JcZLcXevghEKZij4KSM65CgxAxZo50AHqGu4JIA8SAiMaZQL86TkACR9DZXa4oE7PDwJK5QazPb0U0N2QGYGNu/eYszwcMHzi6NkC7brdFmVvCqqooxsqlsL8cYsH0FvYeJMbxD+D8O6J30aDDAzrNs/sjHxbhBwlktzZimydq/OX+0FsIkPp5SymMwcbag4Hn51FWroHCUUhSBDO183FZ2WRZ4xqulO+ywzdbRZnuJqoW2aZ7DMgwD5A11Z5vikmTwFLU/pZSLtzWV4XEcKQyuCKRp29YVykv0THY82OAcJQtii/Nx1y33q4C9BOTm7ETLckxxNoD5qAWOFmQCaL8dd8jfVuFqm2JNbx/JYzA6bBrXyrmA4WiMpZdPhpxtmArwkXVdx3HkWGD8TgDLbibYEvWDCgAAIABJREFUVCnAR11smE+haq5XsKPmNXUocGlZMWcEpmmCClpHwdmDe3B++XM5PM/l/0nCOesMJ+XmOHDE8EoY1bZR805vhc35aO4fsvp1Xdv0jGfA5Z8P5vxdOl0PMqlf/phhSgnHu+n47C26RY6QzRjn8lJK8G6cgV61ChNtV3R+mVef70is/a50rHiYm2uFnGEec8Q85ylYnIPTtm0IgaqG7uT8oNtdYFY2ML38IcYVwUgycQng8fnm6apT2++Wx6vgzICdOW1OGTn0YKF1qX3f2zkTq7yTZ955rsaganaA21ae59nZgLHmIuFGrLTYcq/OTVmjSwGsU7lkTCm9uzTmNc39AAadraYzGLvW6Nvs8H3fX+1+Lp9nuDy7NNqtMLYHtgUwWtCodiTYTp9SQj/gs9YpY1VhYzZ9BJ9FwOXvHrF7NfZBK34wyb7yQdguXOyz1hcgPo/ZdHmcC1+1Ks/QGmDDefU3pRFYOP9lDpy3ult5tjbmoHmXklk44zjifARdA5qGFiKAjmenIy4BNtsvKR8Sd123kwAKXZblPM+w3AqAK87ScLc4tXLxm1WwKGz6PH+ktAQwUigA3Me2+Vi/nOd5awxe0run2MrLslRVRXtght1jpGFujW7H7LIsUN9Lo4+Z7ATsGwcke19p3Kypk0Zsm+9//gFpBCLWF73OQd6p7JPcer00YuTk/p0xdlC9miZ6GP0L8rF+hOOERbg2dsrHy3me0TkYgxzc48yWAVbQBujUrG18hLNIVOTWN/x5HfOYTZcHCzmEaCQNI948Q6ZxgU0++6UjB7zkq6pqHEfHnDpqkdqCDpp3KZnrq0VR2B5FSrameGS/D7dtS7+8SWBfGrGyhzDDhryBaJKlwUgGjldh004rFcwzJ4C1FxaO0zRxQ4KPYGuOl7nNrn03a82nuB/OGOSMVsazuRLkZuMph8hZgje+tPymwDAMdjGNZzfNsJGohWtxF7lfU45r1iXGyL2QzSpAGrFKRvPN84xO7iBvPv5Uka+Xxo/BBB/q2hs9hkPUHS51bexeayFDHF1BFZybdkMor6bL37kV2Lb5DoYfOeWnuvNSbAzytG46j8Gosx4fhmFz+KpVSOAGqrWB4bz6O6tGbk3Dq9qJ6itWjVfNy7HAbAuHp52504AWt2/RWCMazOrbgLXHFsE0V6WR2Bngsy6w3y2PV2HTTteHUTRSOgLY8MBKy92C0tuhmneV4zHjyx8scU+xldGp7AtRNpxdvDIT9kZb33Vdeb6dEx0Hf+dyc5+Tr6vZx5CDXZ5i49dNL+zkg8rXdd1mTW2ClBJ8WgjB5WmNhzTy9MM8z03ToNYOsn3qOcNnl0as/V1Hx5Y6Rmb+lt61MY7JsXUhhFZmnDTi0g37aZroOl3+dpihFKwDmB6ROAmNMHa6XIJlWZyw0Wb6gp2Y3OWBDOezV62Ce3XewXo6lJ5Xn/7I2m9LhxewjeiY5wzzmCPm5aBgs4MD26jNaA5XU+x2OhrkD09EtpsEcGqUTJwNPMaCCdNVadzvlserkJtxqVk3CdB38y2pZUI/eynPvPNsxhRFYQegS2NbGVhsQ2Dv1M1NbW/ctA2VtW7B1utS+JIuonFzlcI0nTv57hIdxn7XuF9TJ40wEnmy1znLKY1woW3bclQ6yO7BJ7w8uzTy4wrrpJqmsRNAdyDNtjHGie3xGEvsndzqZNtzgkbpwiY+E9j8Eeli4H3scIU2cLSzCPbgdV3xVRlLsQE7QhCfx6BQHprgvJVFXLUKU1qe8kcOthYc8Ha1BHv2S4e1HIQ84mHr6Bjm0njEPAx429zWPKJA5pRGmGd7FF5Ru7pba6GFljYI2CLQtfhUnsC+C4QNOVg+zj6z2S2PVwEa4OwEELfawCebNIABzLFyOOjDTJa34PEYZ4nrG6gsWpkvEW2N8mkE6Fkf4vJE67DnHDmhOs9z3l5937OB3NwiPx9kp/jg5s7KXa2pTYAcUHfScKdMKY08hHFpgYHhT5dlm/VJwmeXRrp4+6EhPltkC9n+gVUmv2vEdx0UQgotuw5j2KEplhg8+GSKd1GW/f6Ms1QOPHyBxzOQ+MDOCgM3NDCvzEcyq4YAxq3N4VIMP6TD9yF2P+eqVUTBX4a0MglL4GJs9a2Fl0pnzn3f43+Ngn25YRiwVjtIFU55xzzIpwUF86y/4LEL69fwIL7pxAuzvI7ICv/iWzobgxzgW/HjBvg8n2lgA9em6KjUY16yr/JBBpDDZrdkj9qvgusDzJlzBRx7AYEYI7u0TZlrPNbQ7ocUoARFUTCTI62MNHaPNH/KdX4okC1onmd8mYphjrFA8lxssQPgZBZ/QIB7AHlHIgcUUZYlf98AE3Qr6qCNQQQnkA+o5uUHyud5JnO6mtyMvKZAgV6H3/3AzwigF6EJ+B4HGbJS9mOtfFyjQ9KJseLPE7gDacQ7DGwU4IdUbO9BU+FtAY63WL3B8T+kwRjDvhyGgYuxc0b+Xn5VVSwOHdHmkMegLHb0nZ+o4Jfyzqe4zkeHiHKtcjOGowjr6UuFXrVqWRYsZfBbyc5NO0voWY6UzgaC7wY3nH3IGeYxYLJvHtsFAbamiyccVzt+xhP/8rW4awheOg4u/6qq6GjQc1w3w28y4Cn4bpch520sEQH7v3Gw3ZLJ9qvgzLBKwFUjW7+ua3Z75o/APM9UdMTkOTsmWKzYyCMx7Fd8cPPXcPg7HrZGfKMMb5Cv75knAu43ti5tP6C++FTD5YBLK8DYZcGcKcZ46aQP/YD9iah8mOM3THi4PUfBn/XhXMRqs8vQvhHYHG5o00s7B65LPOTlfUjjTejdVslNz95vYvTvS171a9frc0v/2rVz+VdVZadcvIuNdztj4K3zB46Pmr7vOe1AveBG+753sw2uYz6rW54f+8ktxC8IntzIr2SepPErgf3obD9XnD639A9mvfNWOH/f9sG2vbq449Joty5R3DRNduve2WB/Esjd0uXJCbiF7MmtfV/zJI3vy/PTcrt0vOJjDPrc0j+mjizFrZkYj8D+XZf4JJc4wLm/3sU23eYyYnr5u1SX/buXnlL85xLAjjf3Zj/XmE8p/dGkEYdi9s9QfAror1ooX7e4Vx1ftVBm/rml0wwFXk3g6iEgvIPEB0jP7C5fTVgP3h2Bh5JGd5xhfxZ8d011yWB3COKDa/25pV9iovjjBNyo2XwviA3zzbM/xwtSShG4IwIPJY13xF2mioAIiIAInJaApPG0TSPDREAEREAEPoeApPFzuKtUERABERCB0xKQNJ62aWSYCIiACIjA5xCQNH4Od5UqAiIgAiJwWgKSxtM2jQwTAREQARH4HAKSxs/hrlJFQAREQAROS0DSeNqmkWEiIAIiIAKfQ0DS+DncVaoIiIAIiMBpCUgaT9s0MkwEREAEROBzCEgaP4e7ShUBERABETgtAUnjaZtGhomACIiACHwOAUnj53BXqSIgAiIgAqclIGk8bdPIMBEQAREQgc8hIGn8HO4qVQREQARE4LQEJI2nbRoZJgIiIAIi8DkEJI2fw12lioAIiIAInJaApPG0TSPDREAEREAEPoeApPFzuKtUERABERCB0xKQNPqmWdd1GIayLLuu8/d0LQIiIAIi8AQEJI2+kcdxbJomhCBp9Gje47rruqIowstfXdfzPLtcl2Wp6zqEEGNUEzg4uhQBEfgYApLGDc7TNEkaN7i8Oapt2xjjNE0ppXVdm6aJMS7LwozneY4xNk2zruuyLEVRNE3DuwqIgAiIwMcQkDRucJY0bkB5c9SyLCGEYRhsTiGEtm0ZU1VVURS8HIYhhDCOI2MUEAEREIEPICBp3IAsadyA8uYoUHXSaNeFSGCVMqUUQijL8s2FKwMREAERuIHA2aURL6X4b0ppWZaqqtxiYp5nvKAKIdR1jS07YOCzIYSqquBtGYkYpGzbNoRQFAUCdV2joKqq1nW1ULkZCMdtixuGoaqqruvmecbjRVHk6x6+ciuKou97ZN51HQ0LIUzT9LoYa6oNs1C8ycO+JRNM01SWJQwoy9JWykGzRhLgOI5uCcicEVjXFXgJE+tIFgTspIGnwNBuujJbSCmNgSXTNBVFgX1aR2+z1swtpWQzdBKeUgKcsix5y+4P23wUFgERuHcCZ5fGlBI0jx6TisUYOGVcLssCF0b/leewGQM3Oo7juq4osSzL5eWvKAoKAF6S8fzqPM84VILjJF3XofSmaZCGgk0BSCk1TVPX9fryB9fPuszz7PTjeEyMkaqz2S+7rqvrGjLT9z3nCikllIIXe3jh53Jb19XqJXDR7JQSYuq63iwakZx8zPOMDG0zAYUFlVJCZD63QIbrulr+KaWiKNAEaBHUC823risMsK3prGWGbqmKfDBf4SMo2kLgLQVEQATumsAdSCN8LjwmlmuW+Lqu8eXgBiOxFrGe3eaAZC4GmdCtY/XA45FQEbrsruusb4Uw81m8HivLkirl3PE0TdY2rKVijLTfKhYiXxfDDBno+55WQUVC+N8O4IDAZlYZObRtyxiXHjMGTCxY3GYAp39RI3c8Fes/FoHHIY1sizxPJED8OI5WaxHp6KGUPB/GVFWFCY1dqrZtC8utecuy2EvmoIAIiMC9E7gzaez73i0gNk9qwItxOp/7cReDTOh/nTTikkclY4zMmestaox7FpoBdwxZql/+bL+JMdrliHPl2My0YnwwxhaRhzEb4JmXYRjsYVHHB493XUcl2EyQl7IZw483iBTJ3i6NWIu7Qi3PfCLiEmOdiv5g33rWdf2WKuelKEYERODMBO5JGqdpcgrBrVG6bLB2u4W5U3MxuKToOnnDMhRFIwwn7v7FIsM9C3vsViGFwT3O5Y515Xj8dTE73Y7vSt26Da9y8U2FVWtk9XZp5CYqls4hBKuOb5TGvu+tmLH6pLcsC+ZMRM00NoCGjjHaecMwDK7P2EcUFgEReDACr5dGeArn3+0lF2FvRGYLshuVyNaqDguCPlFHbQ7WQgqq83q5vNG94hZFlCUykD/LF2Yobv+syqUDL6wLCqI9LNfF2Gq6bzRhoT3+g0xwvqkoimEYNjdU3y6NVVVRC+d5xktB9pPNptyMZK3JFvVl5jaBQ9G2rd1VtikRBmoQQEPjvJLrJPmDihEBEXgYAq+Xxg9DQJeEKb8TCbhOu8PJo4Z0lMyBNrsYd+nkDbtwKBfHMTZXJ8jcPYtIGIllZYzRHfGgVQg4kTu4feqeqr78c+ukdV2xsOZUg9/awwYHhJGXJhOuCpuXQMccsEK1izO0r5t2YJFtX/u5zMEW61E3CUBKksFPAMaXv/0MYRtOO2OtyXNG1n5niS5FQAQehsA9SSNej7nPxuHieQoGDYOjMdSD3NG7GKTn8sXJGy4ptPDmbuXBstyzsKcsS+7O4YiH28m0BzroytnJXhfDxy8F7BtZfPDAlI4P4veP4fDZS4FLefI1LVrBTjswKdmfSUAaOR8KITjZc/SwHGRb59Zy7sVFLeRw0/78ccWIgAg8AIF7ksaUEoTQnfDEMRbrEJumoRRtzvedm3PHXJ28oVAuF6Ao+LQDPQBfVSKMZ61/x+tJ+mIc8eDvpeGcjv100rny160aj3RNVASG4Zs/PrW5oUrN2ES6ruv+CVWsGskBZTVNY7O1c4iU0uYZKxqJAKWRL55thjk9ND3NsJMSZogASmdHyplM0+QO/TrbdCkCInCnBO5AGuH7uGWKubw9iwgXRq3q+94KD19HMQf6UCtgFEscUcG3/PiuMcZovS337qBhZVnGGLkKhDTGGLGOxHeWbt0DTUIRqJ1bdBZFwVUpFMUeH0URNs8jq6uUUtu2VC8chGG2MKNpmmma8FEm3ol2Xdf3PV5A2hJdo1As3fLdjQq7TsWmrkWH477xL5/iwEIu1l1WuORGAvgvy4J5EpUPrNh84zi688DYsCV/ZIjcEEZWbHT2IrQLNl03bVOkCIjA/RI4uzS6MxT2YwluxKWUxnGEZMJVUajcqRa4SJsnnSaUgz+YgnzgN60Mo6Upn3lx8MV1XcMeOHrqHDtK13Xw0WVZ8u0a5JnmHfk1HCZGYP+Mybqu9gdx7P/4gr9dUFXVPM9UlGVZuHgCVdxiuQToNqVZUxe4ZACT2V8Rog7xrg1sWoIlPmYtjidsdj+WhOO4edWgiE3TYDeC9eWaHsKJHmKtUlgEROABCJxdGj8FMXwuVx432fCWZ28qyCXmyRpu/LoEuvxKBLjj+pXyV7YiIAIfT0DSuMH8LfL2lmc3TLkxyn5fceOjSv4aAl3XcdH/muf1jAiIwCkJSBo3muUt8nZwX3Gj1PeIml7+3iOnO8jj3//pN99Pf0wp/cc///b7H/z4dz//5mPCf/qbn/zu598sy6KJyB30EpkoAq8iIGncwLb5QchGuq0ofJuxfxpl6znF3Uzg2+pX3/3dz/7wL9/9z1/98D9//e2H/fvdN7//r7/9KZT4ZqP1gAiIwD0QkDT6VrIHLjY/IfcPmGv3rLmj4Fch8O3f/+K///pH//aPv04p/e7n33z/gx9/TPhP//qHb//hl1+lSspUBETgBAQkjSdoBJkgAiIgAiJwJgKSxjO1hmwRAREQARE4AQFJ4wkaQSaIgAiIgAiciYCk8UytIVtEQAREQAROQEDSeIJGkAkiIAIiIAJnIiBpPFNryBYREAEREIETEJA0nqARZIIIiIAIiMCZCEgaz9QaskUEREAEROAEBCSNJ2gEmSACIiACInAmApLGM7WGbBEBERABETgBAUnjCRpBJoiACIiACJyJgKTxTK0hW0RABERABE5AQNJ4gkaQCSIgAiIgAmciIGk8U2vIFhEQAREQgRMQkDSeoBFkggiIgAiIwJkISBrP1BqyRQREQARE4AQEJI0naASZIAIiIAIicCYCksYztYZsEQEREAEROAEBSeMJGkEmiIAIiIAInImApPFMrSFbUur7fpqmIyTatl2W5UhKpREBERCBmwhIGm/CdaLE4ziWZRle/uq63hSJaZqQpiiKcRxPZP0FU9q2ned58+a6rjHGruvs3bZth2GwMQqLgAiIwNsJSBrfzvATchiGIYRQlmVVVVDHGKMTFaTp+z6lNE1TCOHkKtI0DazdBFrXdQjBSeO6rkVRHFxlbmarSBEQARHICUgacyZ3EGP1YFkWLA3ruqbpWGM1TcOYpmlijJuLS6b5xEDf90VRXDKAS2QnjVD9GOO6rpeeVbwIiIAI3EpA0ngrsc9PP738WTuWZcHakZFd14UQ7CYqFo5t2zLNeQIQ8ktLxnVdy7IcxzFfNaIKRVHYScB56iVLREAE7pTAHUgj9wzh/e2/hD7PMzbcQgj5i7dlWbBmwiYkBcNmZcNN00BIGNl13ZGYlBIfgR8/+BRWP3x3WJblrZuEIYQYI4EgK7fFGkLAygzCSVOxFOv7PsZYlmVKySVA5k3TXFqc2Wrm27YwpizL/BYMRnHOWtalrutxHFFEvmpMKTVNE0KwtpVlWRSFjWFuCoiACIjAVQJ3II3wffSJcJF283CeZx4zwdrCusV5nmOMWJHg1RSWU/M8l2UJ7wnXDDWapgmZMzFd9sGYGGMI4chT1L95nkMIWPrA4Fs3Cfk4mhyy55ofkagySiQoMCyKgvqKBFVVpZTWdW3bNoSAS5ctLgkH4so0yCeEwMryFgNFUYSw3RXHcURz7Egjmo+6yzU0m4AFKSACIiACRwhs+6MjT35kmnEcnTTyMqVUVZW9hBPn7lz18kdr6UanaeLy0UpjSom7jliw8lmU5Zx4ngaLpJueyg3Y1xKbeUoJYkDt4RrOJYM0MpmVus0PIWwCLohdnvayqiqs3e0bzbZtsapjufYR6C5W8y4etyjeO9K4OVuSLuY8FSMCInCQwH1I4zRNFD/nIrEosX6w73v6dNzleuISFKdMTJbL3tWYruvyNdDVp4ZhsGdkLtlDw1ygaRrKOc+jOgmntlGiSAmS7/JEei4T13V1e7Z5+qqqcCzWGlPX9X510KAsyGaLrVTEuHa3yXZysMkUFgEREIGDBO5eGuGL+dqMAftSjWJwCcol331V0tw6chiGeZ5vfcpaZV+LXjUbD9qdYcRAKg5K47quTdNwAW2NoXbCqquff0DeYow8azq8/F3Ca63NpZFbqTYZZ0jWzkv1tWkUFgEREIHjBF4vjfB3lKI8sOnFjltmU+6sGmHGpQMX+06ZRVxKBpHLq8YHrTTO84zl6eukcVmWqqqKohiGAXvCR6RxXdeqquyiGbbBZmsnV42MtPXaXFjbBCGEtm0vcUaekDcYD63FyZ1LePHU5poPby5tcUi22akkjWxTBURABN6FwOul8V2KP5jJjjRi+3Rz0cOTlpv+1BZ9yXcfF7llWVjK8adoA47e8AuES/YwPQOXfj4Gm7pWWvA+kus57pei6M1Xm1w1ruuKLV+760sbGIA0oiCcE0aN9quzKY14xGkzL4kaRW/mQKsUEAEREIFbCdyHNO4cw8HbRHtgFQiwDILTtHqAuzykg8tLvvu4yFlnffwptpY9GkpFv7pqvKSLOEnkvmvE2V37FpDKh+rnlJgAdmI5aGtK+xHgpigOIuGLl6vVwVtMVzomQ535w1keHLlyZNDKeR9w5ulSBERABA4SuA9ppJPlGRProLFCsl/dDcPABLxLIk3TuP3DSxuYx0XOrs+OP0WT3AmXS/YwPT5ocWtlfGKBNMuyxBi5DEV6t+aj8vG7C0JDJkyASygo0yzL4iSK0ogXwFS7q9XJz/TamiIM/WPpNgF2Dux0B+84bRqFRUAEROA4gVNLIz9JLMuS3wPAQdslArcEY4x4XccPFiml+Nq9qionGPhCAK7Z+lbEX/pCkZqEn3Gxu5GM4fs/xlj5RImMgZripwaapsHdtm03lYA6h+9S+K9bJkKfMAmAeNgJAdfTsAFrSlsRJKDajeMIGpRDzDmYJ6qJWiMM4/FbNiEEh9f2UZhHYvYWwzvSCOklTOS2XyKzVUAEREAEcgJ3II0xRvpfvm1CgPXhudD4slSil0QC/g8o8v91AxyuzRau38Uf+TWc6eXPZpU/Ze/ih3ugB/jiHqu0eZ4pS5wQsKbcLHVZuXUn0o/jCAFzP6+D6QVzgIbx54Swi8m7DNR1TV2kPMN+iwu5NU0D4/m4W4PaGkFKd7STU5zNuYL7oTgYUxQFdd2WpbAIiIAIXCVwamm8av1dJ8A6bNPX33W9Xmf8/s+L7+Q5TdPmLwdN02T3k3dy0C0REAERcAQkjQ7Ih17ak7cfWvApC9v/n1JdMrmqKruWZbL8p3R5SwEREAER2Ccgadzn89XvatVoEecnpOzdPLz5vzLGhGNzLzrPQTEiIAIikBOQNOZMFPOZBIZh2FwF5jb1fb9/cid/RDEiIAIicISApPEIJaURAREQARF4IgKSxidqbFVVBERABETgCAFJ4xFKSiMCIiACIvBEBCSNT9TYqqoIiIAIiMARApLGI5SURgREQARE4IkISBqfqLFVVREQAREQgSMEJI1HKCmNCIiACIjAExGQND5RY6uqIiACIiACRwhIGo9QUhoREAEREIEnIiBpfKLGVlVFQAREQASOEJA0HqGkNCIgAiIgAk9EQNL4RI2tqoqACIiACBwhIGk8QklpREAEREAEnoiApPGJGltVFQEREAEROEJA0niEktKIgAiIgAg8EQFJ4xM1tqoqAiIgAiJwhICk8QglpREBERABEXgiApLGJ2psVVUEREAEROAIAUnjEUpKIwIiIAIi8EQEJI1P1NiqqgiIgAiIwBECksYjlJRGBERABETgiQhIGp+osVVVETghgaZpgvlr29Yaua5r27YxxhBC0zTrutq7CovAVyIgafxKYJWtCIjAdQLLshRFUZm/ZVn42Lqu5cvfsizrutZ1XZal1JF8FPh6BCSNX4+tchYBEbhCoGmaaZouJeq6LoRAsVyWJYTglpWXnlW8CLyFgKTxLfT0rAiIwOsJYMl46fl1XWOMZVnaBFVVhRC0cLRMFP4aBM4ujeYdxJ+DKaVlWTA8xnEkkXme67pG4rqu7TyUOTRNw/QItG0bQogxdl2XUkK2TL8Zk1KyLz9ijG3bcqC6HJhVURQocVkW2lkURd/3zqT8suu6oihCCEVRdF3HsjChZhE2wFk2IrlhhXxCCFVVTdNkHwFblO5y7l7+bOJpmmwa2nxr7XbMQ562UBuuqgoJ1nVtmgYvomwC2wFoHgLTNLEJ6rqe59kmGMexLEv0iqZpSDKlZPO3YfSraZqapqmqCibZfpVSsrhCCDSPHQY9kI1SliW2GFm1q62AbPOCmCdsdm0XQkDRfd87HbJsy7IchoGgXCnExc6ZUhrH8eoKD28Zy7Js29aiRkHIoa5rlkuSMIb0WLWUEvLEytI2E8JlWVq/YXO2450DlglgDGpEU8uyLIrC1prpFbh3AmeXxpQSHBlVpK5rDAnGoNficlkWuDY7kukKXSeG34FrQEP2fR9CsKMxj6nrOsYIl4pxyByKokA8/BHiYRI0tSgKvCzBSxTrJTd7El+0pJRgCd+11HXNOkLtUITdocLrGZoHj0Zu67pCLJ080NQQAv3INE0OV1VVdV0TKXK7qXb75sGMsiwpJM7+lBLaGrMTMN93VcMwxBiR4TzP8On0dDjugbuoLxt6nmeShxlMhoZAH4OetS9/8MWEj+YLITjaZVmyRTDzK4qCVUZX5yOw2dbxSExOxj01z3Px8hdjRD9cliXGiGMvFHs7uUQOmKNgsshOiBxAyQ4l18PXda2qitofQrAcqIIEaLPlnqobnn3fl2UZY2S5aBc2Fjo88TqTOMpsz0cati8fwe5u3qBMoMBdE7gDabSeCKPUEseuix206LIxRnrtruvQs6klmNU6YUspWUlDKXmMdQHrutpLjlj31DAM8zy7SCi6G/m2aqg4HTdnxHiEZWFBw4XUsizWxYzjyEtLEgXB89pCGc63BbI+AAATU0lEQVRvwWD4ZSsVeOTW2uGpffNSSm3b0pE5++Gdud6FAeTAijCArmKBwzXb2YztIcMwsHGnaeIswZmBhmCvo4wBl+2HTueg/VQj2tm2LTPJW4EmMf3VGNdL8aB9Kl+0VVXlVk65qNgcuKqmVeu6juPIMcj4PLAsC0Yil7BIg7rb9qJespVdr6MishTXWLh0eTIxPAB8hXUpnBywXDwyv/zZxxV+GAJ3Jo1939NDoQ3gv1wkRpqVBCSz7y2apsnFyY20TbEsiuKSLLFb5PmklOZ5jjHS1M00zCGlhCWmjaH/tZFOGt2t6eUPkc5NcAfJPYLL3ClDqHCGvigKq9mvqB1KmV7+EM7Ngyu8JI3w+HzzBJ7OeSFn/IsVhjObCdBnnCvfXFVv2rnZCljUuha3Prfve9uXyIFW5a3gBGmzXJcGVXNkbBp3C93MGYYRZLXH5oC2yGWeFbka4LYEG+hWaZzn2dlMKWUXwjsUeobcKmw4o93ZGfq+v9q78qwUc9cE7kkap2lyY5jbrez6aAw4QSbuuo5vmDDwMFHNxelIDNt7GAb4PhbEW3k+vIW1At8gXprA2g0r+yw2oFx9rZOyibFBxMS5T889Lx/fvMU92B3nsq7r1dqxFDgdXObm7UsjpbosSy7K87ZgWZs14l2A5SUCWEC4Ntq0c1OikNI+Dhvo/bkDb8u18pPbnLf1fgzeT19Kg/UQxRtmYPhYszH1wRYxTWWeXPbZNTeTHQ+gXHYt1N2ZAaRsZQ40HEEgWBZqG2scR7xPpeYxGQOQRljC6qA41peJFXhgAq+XRvS5/EU3Y1yffjVEWxDf9zA3jB96f8RjwHD8QBqxRsS8Eh6Z44q5IYZVYMDVBWcWmqa5JGB5ziiCR3i6rsM03OXsLGEVGL9Z351Ba/fKrJtAhsiN1bQnmHCL5TIAr2Ffd/HW8drxkX3zrkojNsbt+6qcGMu6VCMkAAQmRgDEXBvlGJmDKz1/HI2OheM0TXYbg0VflUa2FwOuXPYH7ORvyjafDSFQA3ZqjUy4fc1L5mPPo7EutwbsnmpOj6tAtogdsHwxbAtFJjTSvse1yRiGNGIRjNaZ5xnFkSoTK/DABF4vjR8GhZ5oc18I/o4zTViFAcOdK0gjtiix5wNXkgvYkRgcieTboM0Bk+fDQyVU9800pIq7+Q4V6utmx5s2ICvrNEmSpVi1wJyaJ4PsLabH3BwN4Tav+HU2puT7tWOG++YdkUYUxDO3NkOWggBq5GZRTAPvyWZFPIhtKkeeT94Km49jsw4rLZczOslVaXR1zMtFzPjyh4pcSoNNfja6rbU1g5nYF5DMc11XnG+KMbqeiQeP/1tVFWUP0wjXzdD3yI3dDIntm11bFzQWz7G7PK15kEa+15/nmQeVWV+bXuFHJXBP0ohjFG6Si0WMG8ZYIHL8UBrxpgHn4DffI3Kksb1dDEagVeLNAeOeQm4Y1XS+m2lYbkoJiyGmxy2cF7fJNtcESAD/y8T70uim5JvSWFXVPM+bx2tvrR1OY3L6wtKd5Owcw+ExFnwVDp5ONlh35m9LRA7oJ9g7tS3LDVvn7nOMKCXvCehv7nEuHPmW1Bo5vPwxJm+FvJTNmKIo2P83ewifQnWs5mEvxE3LsJCy9JgDrOXgovGvCFhxtUs3ZoVXGNwRtYMIrKyFbHR2KuRp177MGQFKIzeZ6Ftcfd2DunwwAvckjTxabeeG1EvrgJqmsUOd0ojzBfx9jVccw4EfoQPFSMvdcZ4zz7xQ6jbT2O6FsuxQh/3W5cG5Xxq0XdfZ10i5T3ee13o3dwvzaBYN72m3VZH+eO3gtvbNAzQyye237wKvSiNbn7WAxqPn4HHbbbDNYPnDElCit6V5IQS3QYovSpmAAUx68pxRX/p99hk+uC9yTJZbkvcQxvD9MZdrLJegUkpQdDvKmAPKReswk+MnVGl2fijJzS3y80FWGtEnN1fAtrGwPcBC3SlTSiNanxPxzZHu5jHMU4EHIHAH0gifSzXCtNF+UYdBW5Ylxi1eBNrBUFUVH8eXZ2g5LHQ4K+Qc08ZgVYpPubnQxEHTYRjgmnFpvXyeMzPHh3pd16FesM16HPYqLs5gPL6PtLYhJapvVQrx+MaLuXGPyDove/YEG6qctrvpOahar40E3B+GZzxeu33z+r7HuseKjesJfOvJ+uKHEayRtvpsAigHcrPeH61mP+bLqbpGsfnD5+LYC463EKZNRjNsF8UUp2kat9fnPpmgfrOOXOGxCyGNnT7mT7kYzNKsqGCjld+A4vgoBxEHAieFbjeedcy7K1FwWrO+/PV9n88VQBt9DP2f/Q35oNexFEipPT6NVgZqHhei2ZwtkR4+9GLmxJiPMnS//HNMVlCBuyZwdmnk+3PO9Tg3tLsi/BETfLDPtYs9LIDxwIkexgzz50x5P4abbPY3dGKM1mswBwSsFKHQoijwyVeMcf9cAD0sfw3H9TZXC455F+9M4ps5G48PpXHUEy4GywLMo5HyUv7w7Mdrd9U8eiI0JVw5rcUbKVzC67kMnepYaBBd8LSzGaTh2dr4lw/e7bPODKsl6GllWcLj5/3Q5oNP7G2M7aispg10L382xrYLUUAqmIwSxZj8KfRPms3uyjdzmElYVq4UZG7PcPHXcJibqyyOvEL4wcrmbxPzm0L3y1P5gJ2miStgNA1rzYD7SSkrvS5Du+Hv6ovexekFB4U1W+F7J3B2abx3vp9lf1VV+KTBGYBP9T99MJ/cPAft4KXbYNx5qu/7XDPwwSiXL3wcC7I8PRMo8IkE8AOBn2iAiv5KBCSNXwnsJ2fLHeDcDvxAVx7/kTEnN+91KI5Lo93xY1l265iRCIzjKGl0TE5yWdd1Pps5iW0y4y0EJI1voXfeZ/c96f7dD6jVvgH7dz/AvFcUsXlMw+UDH3ppnbFf6/27riBdfgABbE1LFz8A9acUIWn8FOwq9NEI8EwQD8i4GuJlHr69kT91cHQpAmcjIGk8W4vInvsjcOQQEI5y4MPQ+6uhLBaBJyMgaXyyBld1RUAEREAErhGQNF4jpPsiIAIiIAL/v517PXIUB6MwrBSIgRTIwSE4BlIgAzJwBo6ACEjACZABOWhr+2yd+pA80LOXme7VOz+mQMhCeqB0zMXdmADR2NgBZ7gIIIAAAlcCROOVENsRQAABBBoTIBobO+AMFwEEEEDgSoBovBJiOwIIIIBAYwJEY2MHnOEigAACCFwJEI1XQmxHAAEEEGhMgGhs7IAzXAQQQACBKwGi8UqI7QgggAACjQkQjY0dcIaLAAIIIHAlQDReCbEdAQQQQKAxAaKxsQPOcBFAAAEErgSIxishtiOAAAIINCZANDZ2wBkuAggggMCVANF4JcR2BBBAAIHGBIjGxg44w0UAAQQQuBIgGq+E2I4AAggg0JgA0djYAWe4CCCAAAJXAkTjlRDbEUAAAQQaEyAaGzvgDBcBBBBA4EqAaLwSYjsCCCCAQGMCRGNjB5zhIoAAAghcCRCNV0JsRwABBBBoTIBobOyAM1wEEEAAgSuBrx6N6fgv57xt2+12Sykty+LRvV6v+/2uuvf7fV1Xb9q2bZqmrutyzvM8d12XUhrHcd931VFr3o+qeTWlv4jWdVXhMAy3j39qKqU0z7N3tyzLMAwppa7rxnHcts2b1nUdx/F2u+37Po6j6sTPxp2mlDwK71oVbreb2/TCPM/x4+vHv6LElb1QjD3W13LOed/3x+PR9/26rsuy9H2fUrrdbq/Xy+2o2jiOMhmG4fl8emuxl5yzS4qxnOj5U13XyV/O7qfbVMkJrDvGAgIIIPBW4KtHY85Zmfd4PDSA+/2uSdAly7KklLS6bZtmTE3N67pO06S5cpqmcRydjnFSfjweKaX7/W4jJU0sUSorIVRN3YgJoQxWpK3r2n38U4Xn86mBaFqfPv7Vk3gxWPfHDtM0xcK4/Hq9Ukp93zv1lamxJNbXssYeg0Sf0ti3bbPYNE23222eZ2e/d7Rtm74K7B//FPzjOHp32kvM++IrRc75RM/tzPPsAxf7GcdSHLW4Sd9L3BoLCCCAwFuBbxCNSinlja634kj2fdek7MJt23RB5olbFzq+jtE8HqdpTbIxHhS3sUTtT9PkLFQ0er9qxHvJOT+fT11gqY475ha0l67r3NU4WLeshZNNrhl3pyu5osQ1vVCPvS6po07paJ/b7db3vdvMOcvcF75KPn//eDweMThzzpd6anzfdydf3c+6xF062eQ6LCCAAAIS+GbR+Hg84n1Ux09RqKncl5VFhnma9hVYMW/6nq2nfp8usaRoVjt1yOkjSghnYR1Uyhj3/yT/Tja5e0X76pIvs1wtLhRjd0rFkda7VqgPw6CL6ZSSMdW4vhY4xlSowU7TpA/GbnxGT/Xdsc/03LuoK3sTCwgggEAh8J2icV3XepbXHch4dZJz1u07Vy4yzLO/K8R5c9/3eZ5jSSSLc33RrB6zxcq+C+rZvIguP9d0hTqE3ODJJteJ7c/zvO97LHG1uFCPtC55u2s/5KtvyeacdXfXT2q1Rxf6u4J78hk9NWurup91ids/2eQ6LCCAAAIS+PvRqOlS8+Pb/z2F/UPruKNhGIrLMuVTEY2aB518RYadR6MS5Ucz6Uk0OirieNV5U9RBVVSIg00pxfdZtKkYadxXztntP59PxY9LipperUdal7zdtcdbDMEtu4JL/F0hMmrr28p1y8uy+JZ13U+VqCk9dtXR9BH3gYhdYhkBBBAoBP5+NBYN/Xernpff3h5U7PneqbqhKdJPs34Uja7gSXaeZ71T6pI4rvigyy9MuoJm5OJ6SJ33bF4HVVHBg9UVUnykFzd5p8WC2l8+/mlTvcfiI/VI65K3u1b2+ML3bdoVDyCXZRnHsbiH7H6mlM71dCfcdep+xpJt2+IJEzcVAqwigAAChcB3ika9cZNSctL43mkxL+tJmKvV0VhU0Lw5DMPJtKvnmm6zjsa3L5fq/Vj/hKMOqqJCEULqmC5/i03FgdSq4ip2st5j8cE6M+qSete6VavvFrpNqp/HuPFYQYV6grvv++v10ru78QbAZ/Rk7l3U/axLfDFab3I7LCCAAAKFwHeKRgdhfKXTeen4yTmP4xivVxSNcSLWL/BconkzvkjydiYtXv0vElcfifvVi5q+NtUNz+INlL7vfePXV2C+a6oI/6loLNr/F6PR7wr57Sf3UxQxkvUajg/Kvu/xp5B6PBm/0HxGTz/F8RlcH6OiRPGs553FJr2+u66rzwE3ywICCCDwDaJR065vmep23P1+96SmWXgYBk3Ej8ej6zrP2r68u9/vrlD8xQBdFdUR5blbPxqJ2fn29wm6g6e/J6CPFL8p1EWMHoCpQtd1zg93VZ1/vV7x3qOuL2M+FaevZv/4vUElRR+KT2nsHqnjuS4ZhkEd0082o4YvBGMFHzKNNPI6tOL3hnO9dV37vo9WfgnWZ4LGogeKvqGqfupLRuyzd1eAsIoAAgh89Wj0KxW+M+a3HOPbj/4rKvrlnO+L6gArXPWLcr3bEgNGW9W+pu9Yor0U3ShW48sd8zzrBxvdx1/D8aytnmjvunlYd7VoVhd8y7LE3933fR8vznwGKxXcghPOJfG7gj9Vj7QucVO6FvfrLW5EC/EPEg3D8FbYUO5VcVH7I71idPHjWva3irhpGAbtMf6ZAqejkvUtZjE0VhFAoDWBrx6N/8rx0HT/T5rS35aLlyxqbVmWrus841/uokiCy/pfpIKS6W24/poe6i/yxLjVfn1p+Gu6wV4QQKARAaLxUwe6eIAXP7MsC9EYQf6L5Xme61z0jk6OjuuwgAACCHxeoIlo1BO7z6PUNc/D73yrW9MDtvjIzZu++IIec/7eq8YTok/6n7TAJgQQQCAK/P+j0c8miweQUeHXLOu1zPOXYn5NT35qL/u+6+mpX6v5qY9TGQEEEPh2Av/zaCxe3/iNlxfF6y2/8Qrsp85RvePqd1u+4yXvT42XyggggMCfP7RDAQEEEEAAAQSiANEYNVhGAAEEEECAq0bOAQQQQAABBI4CXDUePVhDAAEEEGhegGhs/hQAAAEEEEDgKEA0Hj1YQwABBBBoXoBobP4UAAABBBBA4ChANB49WEMAAQQQaF6AaGz+FAAAAQQQQOAoQDQePVhDAAEEEGhegGhs/hQAAAEEEEDgKEA0Hj1YQwABBBBoXoBobP4UAAABBBBA4ChANB49WEMAAQQQaF6AaGz+FAAAAQQQQOAoQDQePVhDAAEEEGhegGhs/hQAAAEEEEDgKEA0Hj1YQwABBBBoXoBobP4UAAABBBBA4ChANB49WEMAAQQQaF6AaGz+FAAAAQQQQOAoQDQePVhDAAEEEGhegGhs/hQAAAEEEEDgKEA0Hj1YQwABBBBoXoBobP4UAAABBBBA4ChANB49WEMAAQQQaF6AaGz+FAAAAQQQQOAoQDQePVhDAAEEEGhegGhs/hQAAAEEEEDgKEA0Hj1YQwABBBBoXoBobP4UAAABBBBA4ChANB49WEMAAQQQaF6AaGz+FAAAAQQQQOAoQDQePVhDAAEEEGhegGhs/hQAAAEEEEDgKEA0Hj1YQwABBBBoXoBobP4UAAABBBBA4CjwBwIeIoCFdjtYAAAAAElFTkSuQmCC;" vertex="1" parent="1">
          <mxGeometry x="-69.99848501352196" y="1469.9957378211386" width="606" height="435" as="geometry" />
        </mxCell>
        <mxCell id="hSZly8vs_Aa1FeptDqi2-11" value="" style="endArrow=classic;startArrow=classic;html=1;rounded=0;fontSize=12;startSize=8;endSize=8;curved=1;" edge="1" parent="1">
          <mxGeometry width="50" height="50" relative="1" as="geometry">
            <mxPoint x="-182" y="1632" as="sourcePoint" />
            <mxPoint x="-182" y="1529" as="targetPoint" />
          </mxGeometry>
        </mxCell>
        <mxCell id="hSZly8vs_Aa1FeptDqi2-12" value="3" style="edgeLabel;html=1;align=center;verticalAlign=middle;resizable=0;points=[];fontSize=12;" vertex="1" connectable="0" parent="hSZly8vs_Aa1FeptDqi2-11">
          <mxGeometry x="-0.121" y="1" relative="1" as="geometry">
            <mxPoint as="offset" />
          </mxGeometry>
        </mxCell>
        <mxCell id="hSZly8vs_Aa1FeptDqi2-14" value="" style="endArrow=classic;startArrow=classic;html=1;rounded=0;fontSize=12;startSize=8;endSize=8;curved=1;" edge="1" parent="1">
          <mxGeometry width="50" height="50" relative="1" as="geometry">
            <mxPoint x="-184" y="1285" as="sourcePoint" />
            <mxPoint x="-181" y="1147" as="targetPoint" />
          </mxGeometry>
        </mxCell>
        <mxCell id="hSZly8vs_Aa1FeptDqi2-15" value="3" style="edgeLabel;html=1;align=center;verticalAlign=middle;resizable=0;points=[];fontSize=12;" vertex="1" connectable="0" parent="hSZly8vs_Aa1FeptDqi2-14">
          <mxGeometry x="-0.121" y="1" relative="1" as="geometry">
            <mxPoint as="offset" />
          </mxGeometry>
        </mxCell>
        <mxCell id="hSZly8vs_Aa1FeptDqi2-16" value="" style="endArrow=classic;startArrow=classic;html=1;rounded=0;fontSize=12;startSize=8;endSize=8;curved=1;" edge="1" parent="1">
          <mxGeometry width="50" height="50" relative="1" as="geometry">
            <mxPoint x="-182" y="1143" as="sourcePoint" />
            <mxPoint x="-182" y="1040" as="targetPoint" />
          </mxGeometry>
        </mxCell>
        <mxCell id="hSZly8vs_Aa1FeptDqi2-17" value="2" style="edgeLabel;html=1;align=center;verticalAlign=middle;resizable=0;points=[];fontSize=12;" vertex="1" connectable="0" parent="hSZly8vs_Aa1FeptDqi2-16">
          <mxGeometry x="-0.121" y="1" relative="1" as="geometry">
            <mxPoint as="offset" />
          </mxGeometry>
        </mxCell>
        <mxCell id="hSZly8vs_Aa1FeptDqi2-19" value="15" style="endArrow=classic;startArrow=classic;html=1;rounded=0;fontSize=12;startSize=8;endSize=8;curved=1;" edge="1" parent="1">
          <mxGeometry x="-0.0054" width="50" height="50" relative="1" as="geometry">
            <mxPoint x="-185" y="1520.22" as="sourcePoint" />
            <mxPoint x="-185" y="1294" as="targetPoint" />
            <mxPoint as="offset" />
          </mxGeometry>
        </mxCell>
        <mxCell id="hSZly8vs_Aa1FeptDqi2-21" value="" style="endArrow=classic;startArrow=classic;html=1;rounded=0;fontSize=12;startSize=8;endSize=8;curved=1;" edge="1" parent="1">
          <mxGeometry width="50" height="50" relative="1" as="geometry">
            <mxPoint x="-453" y="1016" as="sourcePoint" />
            <mxPoint x="-196.8" y="1016" as="targetPoint" />
          </mxGeometry>
        </mxCell>
        <mxCell id="hSZly8vs_Aa1FeptDqi2-22" value="12" style="edgeLabel;html=1;align=center;verticalAlign=middle;resizable=0;points=[];fontSize=12;" vertex="1" connectable="0" parent="hSZly8vs_Aa1FeptDqi2-21">
          <mxGeometry x="0.2744" y="-2" relative="1" as="geometry">
            <mxPoint x="-24" y="-2" as="offset" />
          </mxGeometry>
        </mxCell>
        <mxCell id="hSZly8vs_Aa1FeptDqi2-23" value="4" style="endArrow=classic;startArrow=classic;html=1;rounded=0;fontSize=12;startSize=8;endSize=8;curved=1;" edge="1" parent="1">
          <mxGeometry x="-0.0011" width="50" height="50" relative="1" as="geometry">
            <mxPoint x="-737" y="1019" as="sourcePoint" />
            <mxPoint x="-473.8" y="1019" as="targetPoint" />
            <mxPoint as="offset" />
          </mxGeometry>
        </mxCell>
        <mxCell id="hSZly8vs_Aa1FeptDqi2-24" value="" style="endArrow=classic;startArrow=classic;html=1;rounded=0;fontSize=12;startSize=8;endSize=8;curved=1;" edge="1" parent="1">
          <mxGeometry width="50" height="50" relative="1" as="geometry">
            <mxPoint x="-929" y="1019" as="sourcePoint" />
            <mxPoint x="-737" y="1019" as="targetPoint" />
          </mxGeometry>
        </mxCell>
        <mxCell id="hSZly8vs_Aa1FeptDqi2-25" value="11" style="edgeLabel;html=1;align=center;verticalAlign=middle;resizable=0;points=[];fontSize=12;" vertex="1" connectable="0" parent="hSZly8vs_Aa1FeptDqi2-24">
          <mxGeometry x="0.2744" y="-2" relative="1" as="geometry">
            <mxPoint x="-24" y="-2" as="offset" />
          </mxGeometry>
        </mxCell>
        <mxCell id="hSZly8vs_Aa1FeptDqi2-26" value="" style="endArrow=classic;startArrow=classic;html=1;rounded=0;fontSize=12;startSize=8;endSize=8;curved=1;" edge="1" parent="1">
          <mxGeometry width="50" height="50" relative="1" as="geometry">
            <mxPoint x="-935" y="1150" as="sourcePoint" />
            <mxPoint x="-935" y="1047" as="targetPoint" />
          </mxGeometry>
        </mxCell>
        <mxCell id="hSZly8vs_Aa1FeptDqi2-27" value="5" style="edgeLabel;html=1;align=center;verticalAlign=middle;resizable=0;points=[];fontSize=12;" vertex="1" connectable="0" parent="hSZly8vs_Aa1FeptDqi2-26">
          <mxGeometry x="-0.121" y="1" relative="1" as="geometry">
            <mxPoint as="offset" />
          </mxGeometry>
        </mxCell>
        <mxCell id="hSZly8vs_Aa1FeptDqi2-28" value="" style="endArrow=classic;startArrow=classic;html=1;rounded=0;fontSize=12;startSize=8;endSize=8;curved=1;" edge="1" parent="1">
          <mxGeometry width="50" height="50" relative="1" as="geometry">
            <mxPoint x="-933" y="1377" as="sourcePoint" />
            <mxPoint x="-935" y="1178" as="targetPoint" />
          </mxGeometry>
        </mxCell>
        <mxCell id="hSZly8vs_Aa1FeptDqi2-29" value="8" style="edgeLabel;html=1;align=center;verticalAlign=middle;resizable=0;points=[];fontSize=12;" vertex="1" connectable="0" parent="hSZly8vs_Aa1FeptDqi2-28">
          <mxGeometry x="-0.121" y="1" relative="1" as="geometry">
            <mxPoint as="offset" />
          </mxGeometry>
        </mxCell>
        <mxCell id="hSZly8vs_Aa1FeptDqi2-30" value="" style="endArrow=classic;startArrow=classic;html=1;rounded=0;fontSize=12;startSize=8;endSize=8;curved=1;" edge="1" parent="1">
          <mxGeometry width="50" height="50" relative="1" as="geometry">
            <mxPoint x="-930" y="1579" as="sourcePoint" />
            <mxPoint x="-932" y="1380" as="targetPoint" />
          </mxGeometry>
        </mxCell>
        <mxCell id="hSZly8vs_Aa1FeptDqi2-31" value="9" style="edgeLabel;html=1;align=center;verticalAlign=middle;resizable=0;points=[];fontSize=12;" vertex="1" connectable="0" parent="hSZly8vs_Aa1FeptDqi2-30">
          <mxGeometry x="-0.121" y="1" relative="1" as="geometry">
            <mxPoint as="offset" />
          </mxGeometry>
        </mxCell>
        <mxCell id="hSZly8vs_Aa1FeptDqi2-32" value="" style="endArrow=classic;startArrow=classic;html=1;rounded=0;fontSize=12;startSize=8;endSize=8;curved=1;" edge="1" parent="1">
          <mxGeometry width="50" height="50" relative="1" as="geometry">
            <mxPoint x="-930" y="1760" as="sourcePoint" />
            <mxPoint x="-930" y="1588" as="targetPoint" />
          </mxGeometry>
        </mxCell>
        <mxCell id="hSZly8vs_Aa1FeptDqi2-33" value="5" style="edgeLabel;html=1;align=center;verticalAlign=middle;resizable=0;points=[];fontSize=12;" vertex="1" connectable="0" parent="hSZly8vs_Aa1FeptDqi2-32">
          <mxGeometry x="-0.121" y="1" relative="1" as="geometry">
            <mxPoint as="offset" />
          </mxGeometry>
        </mxCell>
      </root>
    </mxGraphModel>
  </diagram>
</mxfile>
